<svg width="227" height="78" viewBox="0 0 227 78" fill="none" xmlns="http://www.w3.org/2000/svg">
<mask id="path-1-outside-1_1510_1815" maskUnits="userSpaceOnUse" x="0" y="0" width="227" height="78" fill="black">
<rect fill="white" width="227" height="78"/>
<path d="M46.3844 7.25C46.3844 8.51667 45.9844 9.56666 45.1844 10.4C44.3844 11.2 43.0344 11.6 41.1344 11.6H18.6344L15.3344 30.4C19.0677 29.6 22.5177 29.2 25.6844 29.2C29.4177 29.2 32.701 29.75 35.5344 30.85C38.401 31.95 40.801 33.4667 42.7344 35.4C44.6677 37.3333 46.1177 39.6167 47.0844 42.25C48.0844 44.8833 48.5844 47.75 48.5844 50.85C48.5844 54.65 47.9177 58.0833 46.5844 61.15C45.251 64.2167 43.4177 66.85 41.0844 69.05C38.7844 71.2167 36.0677 72.8833 32.9344 74.05C29.801 75.2167 26.4177 75.8 22.7844 75.8C20.6844 75.8 18.6677 75.5833 16.7344 75.15C14.801 74.75 13.001 74.2 11.3344 73.5C9.66771 72.8 8.11771 72 6.68438 71.1C5.25104 70.2 3.98438 69.25 2.88438 68.25L5.58438 64.45C6.18438 63.5833 6.98438 63.15 7.98438 63.15C8.61771 63.15 9.35104 63.4167 10.1844 63.95C11.051 64.45 12.0844 65.0167 13.2844 65.65C14.4844 66.2833 15.8844 66.8667 17.4844 67.4C19.1177 67.9 21.051 68.15 23.2844 68.15C25.7844 68.15 28.0344 67.75 30.0344 66.95C32.0344 66.15 33.7344 65.0167 35.1344 63.55C36.5677 62.05 37.6677 60.2667 38.4344 58.2C39.201 56.1333 39.5844 53.8167 39.5844 51.25C39.5844 49.0167 39.251 47 38.5844 45.2C37.951 43.4 36.9677 41.8667 35.6344 40.6C34.3344 39.3333 32.701 38.35 30.7344 37.65C28.7677 36.95 26.4677 36.6 23.8344 36.6C22.0344 36.6 20.1677 36.75 18.2344 37.05C16.301 37.35 14.301 37.8333 12.2344 38.5L6.63438 36.85L12.4344 3.35H46.3844V7.25ZM110.492 39.2C110.492 45.4667 109.809 50.9 108.442 55.5C107.109 60.0667 105.276 63.85 102.942 66.85C100.609 69.85 97.8422 72.0833 94.6422 73.55C91.4755 75.0167 88.0755 75.75 84.4422 75.75C80.7755 75.75 77.3589 75.0167 74.1922 73.55C71.0589 72.0833 68.3255 69.85 65.9922 66.85C63.6589 63.85 61.8255 60.0667 60.4922 55.5C59.1589 50.9 58.4922 45.4667 58.4922 39.2C58.4922 32.9333 59.1589 27.5 60.4922 22.9C61.8255 18.3 63.6589 14.5 65.9922 11.5C68.3255 8.46666 71.0589 6.21666 74.1922 4.75C77.3589 3.28333 80.7755 2.54999 84.4422 2.54999C88.0755 2.54999 91.4755 3.28333 94.6422 4.75C97.8422 6.21666 100.609 8.46666 102.942 11.5C105.276 14.5 107.109 18.3 108.442 22.9C109.809 27.5 110.492 32.9333 110.492 39.2ZM101.242 39.2C101.242 33.7333 100.776 29.15 99.8422 25.45C98.9422 21.7167 97.7089 18.7167 96.1422 16.45C94.6089 14.1833 92.8255 12.5667 90.7922 11.6C88.7589 10.6 86.6422 10.1 84.4422 10.1C82.2422 10.1 80.1255 10.6 78.0922 11.6C76.0589 12.5667 74.2755 14.1833 72.7422 16.45C71.2089 18.7167 69.9755 21.7167 69.0422 25.45C68.1422 29.15 67.6922 33.7333 67.6922 39.2C67.6922 44.6667 68.1422 49.25 69.0422 52.95C69.9755 56.65 71.2089 59.6333 72.7422 61.9C74.2755 64.1667 76.0589 65.8 78.0922 66.8C80.1255 67.7667 82.2422 68.25 84.4422 68.25C86.6422 68.25 88.7589 67.7667 90.7922 66.8C92.8255 65.8 94.6089 64.1667 96.1422 61.9C97.7089 59.6333 98.9422 56.65 99.8422 52.95C100.776 49.25 101.242 44.6667 101.242 39.2ZM168.5 39.2C168.5 45.4667 167.817 50.9 166.45 55.5C165.117 60.0667 163.283 63.85 160.95 66.85C158.617 69.85 155.85 72.0833 152.65 73.55C149.483 75.0167 146.083 75.75 142.45 75.75C138.783 75.75 135.367 75.0167 132.2 73.55C129.067 72.0833 126.333 69.85 124 66.85C121.667 63.85 119.833 60.0667 118.5 55.5C117.167 50.9 116.5 45.4667 116.5 39.2C116.5 32.9333 117.167 27.5 118.5 22.9C119.833 18.3 121.667 14.5 124 11.5C126.333 8.46666 129.067 6.21666 132.2 4.75C135.367 3.28333 138.783 2.54999 142.45 2.54999C146.083 2.54999 149.483 3.28333 152.65 4.75C155.85 6.21666 158.617 8.46666 160.95 11.5C163.283 14.5 165.117 18.3 166.45 22.9C167.817 27.5 168.5 32.9333 168.5 39.2ZM159.25 39.2C159.25 33.7333 158.783 29.15 157.85 25.45C156.95 21.7167 155.717 18.7167 154.15 16.45C152.617 14.1833 150.833 12.5667 148.8 11.6C146.767 10.6 144.65 10.1 142.45 10.1C140.25 10.1 138.133 10.6 136.1 11.6C134.067 12.5667 132.283 14.1833 130.75 16.45C129.217 18.7167 127.983 21.7167 127.05 25.45C126.15 29.15 125.7 33.7333 125.7 39.2C125.7 44.6667 126.15 49.25 127.05 52.95C127.983 56.65 129.217 59.6333 130.75 61.9C132.283 64.1667 134.067 65.8 136.1 66.8C138.133 67.7667 140.25 68.25 142.45 68.25C144.65 68.25 146.767 67.7667 148.8 66.8C150.833 65.8 152.617 64.1667 154.15 61.9C155.717 59.6333 156.95 56.65 157.85 52.95C158.783 49.25 159.25 44.6667 159.25 39.2ZM204.058 16.7V38.05H224.408V44.8H204.058V66.3H196.758V44.8H176.508V38.05H196.758V16.7H204.058Z"/>
</mask>
<path d="M45.1844 10.4L46.5986 11.8142L46.613 11.7998L46.6272 11.7851L45.1844 10.4ZM18.6344 11.6V9.6H16.9549L16.6645 11.2542L18.6344 11.6ZM15.3344 30.4L13.3645 30.0542L12.8514 32.9775L15.7534 32.3556L15.3344 30.4ZM35.5344 30.85L34.8105 32.7144L34.8179 32.7173L35.5344 30.85ZM47.0844 42.25L45.2069 42.9392L45.2107 42.9496L45.2147 42.96L47.0844 42.25ZM46.5844 61.15L44.7502 60.3525L46.5844 61.15ZM41.0844 69.05L42.4558 70.5058L42.4564 70.5052L41.0844 69.05ZM32.9344 74.05L33.6323 75.9243L32.9344 74.05ZM16.7344 75.15L17.1718 73.1984L17.1557 73.1948L17.1396 73.1915L16.7344 75.15ZM11.3344 73.5L10.5599 75.344L11.3344 73.5ZM6.68438 71.1L7.74791 69.4062H7.74791L6.68438 71.1ZM2.88438 68.25L1.25401 67.0916L0.226951 68.5371L1.53903 69.7299L2.88438 68.25ZM5.58438 64.45L7.21474 65.6084L7.22181 65.5985L7.22876 65.5884L5.58438 64.45ZM10.1844 63.95L9.10627 65.6345L9.14505 65.6594L9.18493 65.6824L10.1844 63.95ZM13.2844 65.65L12.3509 67.4188L13.2844 65.65ZM17.4844 67.4L16.8519 69.2974L16.8753 69.3052L16.8989 69.3124L17.4844 67.4ZM30.0344 66.95L29.2916 65.093L30.0344 66.95ZM35.1344 63.55L33.6884 62.1683L33.6877 62.169L35.1344 63.55ZM38.4344 58.2L36.5592 57.5044L38.4344 58.2ZM38.5844 45.2L36.6978 45.8638L36.7032 45.8793L36.7089 45.8946L38.5844 45.2ZM35.6344 40.6L34.2386 42.0325L34.2477 42.0413L34.2569 42.05L35.6344 40.6ZM30.7344 37.65L31.405 35.7658L30.7344 37.65ZM18.2344 37.05L17.9277 35.0737H17.9277L18.2344 37.05ZM12.2344 38.5L11.6691 40.4185L12.2611 40.5929L12.8484 40.4034L12.2344 38.5ZM6.63438 36.85L4.66369 36.5088L4.35967 38.2648L6.06912 38.7685L6.63438 36.85ZM12.4344 3.34999V1.34999H10.7509L10.4637 3.0088L12.4344 3.34999ZM46.3844 3.34999H48.3844V1.34999H46.3844V3.34999ZM44.3844 7.25C44.3844 8.05481 44.148 8.59157 43.7416 9.01493L46.6272 11.7851C47.8207 10.5418 48.3844 8.97852 48.3844 7.25H44.3844ZM43.7702 8.98579C43.5315 9.22448 42.8436 9.6 41.1344 9.6V13.6C43.2252 13.6 45.2373 13.1755 46.5986 11.8142L43.7702 8.98579ZM41.1344 9.6H18.6344V13.6H41.1344V9.6ZM16.6645 11.2542L13.3645 30.0542L17.3043 30.7458L20.6043 11.9458L16.6645 11.2542ZM15.7534 32.3556C19.3761 31.5793 22.6838 31.2 25.6844 31.2V27.2C22.3516 27.2 18.7593 27.6207 14.9153 28.4444L15.7534 32.3556ZM25.6844 31.2C29.2248 31.2 32.2541 31.7219 34.8105 32.7144L36.2582 28.9856C33.148 27.7781 29.6106 27.2 25.6844 27.2V31.2ZM34.8179 32.7173C37.4551 33.7292 39.6081 35.1022 41.3202 36.8142L44.1486 33.9858C41.994 31.8311 39.347 30.1708 36.2509 28.9827L34.8179 32.7173ZM41.3202 36.8142C43.0429 38.5369 44.3375 40.571 45.2069 42.9392L48.9619 41.5608C47.8979 38.6623 46.2925 36.1297 44.1486 33.9858L41.3202 36.8142ZM45.2147 42.96C46.1203 45.3448 46.5844 47.9682 46.5844 50.85H50.5844C50.5844 47.5318 50.0485 44.4218 48.9541 41.54L45.2147 42.96ZM46.5844 50.85C46.5844 54.4129 45.9602 57.5696 44.7502 60.3525L48.4185 61.9474C49.8752 58.5971 50.5844 54.8871 50.5844 50.85H46.5844ZM44.7502 60.3525C43.5201 63.1818 41.8403 65.5885 39.7124 67.5948L42.4564 70.5052C44.9951 68.1115 46.982 65.2515 48.4185 61.9474L44.7502 60.3525ZM39.713 67.5942C37.6185 69.5673 35.1344 71.0967 32.2365 72.1757L33.6323 75.9243C37.001 74.67 39.9503 72.866 42.4558 70.5058L39.713 67.5942ZM32.2365 72.1757C29.3451 73.2523 26.2002 73.8 22.7844 73.8V77.8C26.6353 77.8 30.257 77.181 33.6323 75.9243L32.2365 72.1757ZM22.7844 73.8C20.8228 73.8 18.9532 73.5977 17.1718 73.1984L16.297 77.1016C18.3822 77.569 20.546 77.8 22.7844 77.8V73.8ZM17.1396 73.1915C15.3213 72.8153 13.6461 72.3017 12.1088 71.656L10.5599 75.344C12.356 76.0983 14.2808 76.6847 16.3292 77.1085L17.1396 73.1915ZM12.1088 71.656C10.5357 70.9953 9.08314 70.2446 7.74791 69.4062L5.62084 72.7938C7.15228 73.7554 8.79971 74.6047 10.5599 75.344L12.1088 71.656ZM7.74791 69.4062C6.40119 68.5606 5.23127 67.6806 4.22972 66.7701L1.53903 69.7299C2.73748 70.8194 4.10089 71.8394 5.62084 72.7938L7.74791 69.4062ZM4.51474 69.4084L7.21474 65.6084L3.95401 63.2916L1.25401 67.0916L4.51474 69.4084ZM7.22876 65.5884C7.47915 65.2268 7.68165 65.15 7.98438 65.15V61.15C6.2871 61.15 4.8896 61.9399 3.93999 63.3116L7.22876 65.5884ZM7.98438 65.15C8.07708 65.15 8.42842 65.2007 9.10627 65.6345L11.2625 62.2655C10.2737 61.6326 9.15834 61.15 7.98438 61.15V65.15ZM9.18493 65.6824C10.0794 66.1984 11.1359 66.7775 12.3509 67.4188L14.2179 63.8812C13.0329 63.2558 12.0227 62.7016 11.1838 62.2176L9.18493 65.6824ZM12.3509 67.4188C13.6674 68.1136 15.172 68.7374 16.8519 69.2974L18.1168 65.5026C16.5967 64.9959 15.3013 64.453 14.2179 63.8812L12.3509 67.4188ZM16.8989 69.3124C18.77 69.8852 20.91 70.15 23.2844 70.15V66.15C21.1921 66.15 19.4654 65.9148 18.0698 65.4876L16.8989 69.3124ZM23.2844 70.15C25.9985 70.15 28.5062 69.7153 30.7772 68.807L29.2916 65.093C27.5626 65.7847 25.5703 66.15 23.2844 66.15V70.15ZM30.7772 68.807C33.0263 67.9073 34.971 66.6177 36.5811 64.931L33.6877 62.169C32.4977 63.4157 31.0425 64.3927 29.2916 65.093L30.7772 68.807ZM36.5804 64.9317C38.2136 63.2225 39.4541 61.2016 40.3095 58.8956L36.5592 57.5044C35.8814 59.3317 34.9218 60.8775 33.6884 62.1683L36.5804 64.9317ZM40.3095 58.8956C41.1711 56.573 41.5844 54.0158 41.5844 51.25H37.5844C37.5844 53.6176 37.231 55.6937 36.5592 57.5044L40.3095 58.8956ZM41.5844 51.25C41.5844 48.8176 41.2211 46.5608 40.4599 44.5054L36.7089 45.8946C37.2809 47.4392 37.5844 49.2157 37.5844 51.25H41.5844ZM40.471 44.5362C39.7367 42.4491 38.5835 40.643 37.0119 39.15L34.2569 42.05C35.3519 43.0903 36.1654 44.3509 36.6978 45.8638L40.471 44.5362ZM37.0301 39.1675C35.495 37.6718 33.6025 36.5479 31.405 35.7658L30.0637 39.5342C31.7996 40.1521 33.1738 40.9949 34.2386 42.0325L37.0301 39.1675ZM31.405 35.7658C29.1751 34.9721 26.6391 34.6 23.8344 34.6V38.6C26.2963 38.6 28.3603 38.9279 30.0637 39.5342L31.405 35.7658ZM23.8344 34.6C21.9233 34.6 19.9538 34.7593 17.9277 35.0737L18.541 39.0263C20.3816 38.7407 22.1455 38.6 23.8344 38.6V34.6ZM17.9277 35.0737C15.8795 35.3915 13.7766 35.901 11.6204 36.5966L12.8484 40.4034C14.8255 39.7656 16.7225 39.3085 18.541 39.0263L17.9277 35.0737ZM12.7996 36.5815L7.19964 34.9315L6.06912 38.7685L11.6691 40.4185L12.7996 36.5815ZM8.60506 37.1912L14.4051 3.69119L10.4637 3.0088L4.66369 36.5088L8.60506 37.1912ZM12.4344 5.34999H46.3844V1.34999H12.4344V5.34999ZM44.3844 3.34999V7.25H48.3844V3.34999H44.3844ZM108.442 55.5L106.525 54.9304L106.522 54.9395L108.442 55.5ZM102.942 66.85L104.521 68.0779L102.942 66.85ZM94.6422 73.55L93.8089 71.7319L93.8017 71.7352L94.6422 73.55ZM74.1922 73.55L73.3443 75.3614L73.3516 75.3648L74.1922 73.55ZM65.9922 66.85L64.4135 68.0779L65.9922 66.85ZM60.4922 55.5L58.5713 56.0568L58.5723 56.0605L60.4922 55.5ZM65.9922 11.5L67.5709 12.7279L67.5774 12.7194L65.9922 11.5ZM74.1922 4.75L73.3516 2.93518L73.3443 2.93862L74.1922 4.75ZM94.6422 4.75L93.8016 6.56481L93.8089 6.56812L94.6422 4.75ZM102.942 11.5L101.357 12.7194L101.363 12.7279L102.942 11.5ZM108.442 22.9L106.521 23.4568L106.525 23.4696L108.442 22.9ZM99.8422 25.45L97.8979 25.9187L97.9004 25.929L97.9029 25.9392L99.8422 25.45ZM96.1422 16.45L94.4856 17.5706L94.4912 17.5789L94.4969 17.5872L96.1422 16.45ZM90.7922 11.6L89.9095 13.3947L89.9215 13.4006L89.9335 13.4063L90.7922 11.6ZM78.0922 11.6L78.9509 13.4063L78.9629 13.4006L78.9748 13.3947L78.0922 11.6ZM72.7422 16.45L74.3988 17.5706L72.7422 16.45ZM69.0422 25.45L67.1019 24.9649L67.0989 24.9773L69.0422 25.45ZM69.0422 52.95L67.0989 53.4227L67.1009 53.4309L67.1029 53.4392L69.0422 52.95ZM72.7422 61.9L74.3988 60.7794L72.7422 61.9ZM78.0922 66.8L77.2095 68.5947L77.2215 68.6006L77.2335 68.6063L78.0922 66.8ZM90.7922 66.8L91.6509 68.6063L91.6629 68.6006L91.6748 68.5947L90.7922 66.8ZM96.1422 61.9L94.4969 60.7628L94.4912 60.7711L94.4856 60.7794L96.1422 61.9ZM99.8422 52.95L97.9029 52.4608L97.9009 52.469L97.8989 52.4773L99.8422 52.95ZM108.492 39.2C108.492 45.3292 107.823 50.5618 106.525 54.9304L110.359 56.0696C111.795 51.2382 112.492 45.6041 112.492 39.2H108.492ZM106.522 54.9395C105.243 59.3228 103.509 62.8642 101.363 65.6221L104.521 68.0779C107.043 64.8358 108.975 60.8105 110.362 56.0605L106.522 54.9395ZM101.363 65.6221C99.2115 68.389 96.6936 70.4097 93.8089 71.7319L95.4755 75.3681C98.9908 73.757 102.006 71.311 104.521 68.0779L101.363 65.6221ZM93.8017 71.7352C90.9093 73.0748 87.7975 73.75 84.4422 73.75V77.75C88.3536 77.75 92.0418 76.9585 95.4827 75.3648L93.8017 71.7352ZM84.4422 73.75C81.0508 73.75 77.9227 73.0737 75.0327 71.7352L73.3516 75.3648C76.7951 76.9596 80.5003 77.75 84.4422 77.75V73.75ZM75.0401 71.7386C72.2204 70.4188 69.7296 68.3976 67.5709 65.6221L64.4135 68.0779C66.9214 71.3024 69.8973 73.7479 73.3443 75.3614L75.0401 71.7386ZM67.5709 65.6221C65.4259 62.8642 63.6918 59.3228 62.412 54.9395L58.5723 56.0605C59.9592 60.8105 61.8919 64.8358 64.4135 68.0779L67.5709 65.6221ZM62.4131 54.9432C61.1455 50.57 60.4922 45.3328 60.4922 39.2H56.4922C56.4922 45.6005 57.1722 51.23 58.5713 56.0568L62.4131 54.9432ZM60.4922 39.2C60.4922 33.0672 61.1455 27.83 62.4131 23.4568L58.5713 22.3432C57.1722 27.17 56.4922 32.7994 56.4922 39.2H60.4922ZM62.4131 23.4568C63.6936 19.0393 65.4278 15.4833 67.5709 12.7279L64.4135 10.2721C61.8899 13.5167 59.9575 17.5607 58.5713 22.3432L62.4131 23.4568ZM67.5774 12.7194C69.7369 9.91216 72.226 7.87859 75.0401 6.56138L73.3443 2.93862C69.8917 4.55474 66.9142 7.02117 64.4069 10.2806L67.5774 12.7194ZM75.0327 6.56479C77.9227 5.2263 81.0508 4.54999 84.4422 4.54999V0.549994C80.5003 0.549994 76.7951 1.34035 73.3516 2.9352L75.0327 6.56479ZM84.4422 4.54999C87.7975 4.54999 90.9093 5.22517 93.8017 6.56479L95.4827 2.9352C92.0418 1.34148 88.3536 0.549994 84.4422 0.549994V4.54999ZM93.8089 6.56812C96.688 7.88773 99.2042 9.92083 101.357 12.7194L104.527 10.2806C102.014 7.0125 98.9964 4.5456 95.4755 2.93187L93.8089 6.56812ZM101.363 12.7279C103.507 15.4833 105.241 19.0393 106.521 23.4568L110.363 22.3432C108.977 17.5607 107.044 13.5167 104.521 10.2721L101.363 12.7279ZM106.525 23.4696C107.823 27.8382 108.492 33.0708 108.492 39.2H112.492C112.492 32.7959 111.795 27.1618 110.359 22.3304L106.525 23.4696ZM103.242 39.2C103.242 33.633 102.768 28.8732 101.781 24.9608L97.9029 25.9392C98.7827 29.4268 99.2422 33.8337 99.2422 39.2H103.242ZM101.786 24.9813C100.85 21.096 99.5374 17.8447 97.7874 15.3128L94.4969 17.5872C95.8803 19.5886 97.0345 22.3373 97.8979 25.9187L101.786 24.9813ZM97.7988 15.3294C96.1085 12.8307 94.0696 10.9436 91.6509 9.79373L89.9335 13.4063C91.5815 14.1898 93.1092 15.536 94.4856 17.5706L97.7988 15.3294ZM91.6748 9.8053C89.3754 8.67441 86.9576 8.09999 84.4422 8.09999V12.1C86.3268 12.1 88.1423 12.5256 89.9095 13.3947L91.6748 9.8053ZM84.4422 8.09999C81.9268 8.09999 79.509 8.67441 77.2095 9.8053L78.9748 13.3947C80.742 12.5256 82.5576 12.1 84.4422 12.1V8.09999ZM77.2335 9.79373C74.8148 10.9436 72.7759 12.8307 71.0856 15.3294L74.3988 17.5706C75.7751 15.536 77.3029 14.1898 78.9509 13.4063L77.2335 9.79373ZM71.0856 15.3294C69.3799 17.8509 68.0707 21.0897 67.1019 24.9649L70.9825 25.9351C71.8803 22.3436 73.0378 19.5824 74.3988 17.5706L71.0856 15.3294ZM67.0989 24.9773C66.1488 28.883 65.6922 33.6368 65.6922 39.2H69.6922C69.6922 33.8299 70.1356 29.417 70.9855 25.9227L67.0989 24.9773ZM65.6922 39.2C65.6922 44.7632 66.1488 49.517 67.0989 53.4227L70.9855 52.4773C70.1356 48.983 69.6922 44.5701 69.6922 39.2H65.6922ZM67.1029 53.4392C68.0724 57.2823 69.3818 60.502 71.0856 63.0206L74.3988 60.7794C73.0359 58.7647 71.8787 56.0177 70.9814 52.4608L67.1029 53.4392ZM71.0856 63.0206C72.7735 65.5157 74.8051 67.4122 77.2095 68.5947L78.9748 65.0053C77.3126 64.1878 75.7775 62.8176 74.3988 60.7794L71.0856 63.0206ZM77.2335 68.6063C79.5286 69.6974 81.938 70.25 84.4422 70.25V66.25C82.5463 66.25 80.7224 65.8359 78.9509 64.9937L77.2335 68.6063ZM84.4422 70.25C86.9464 70.25 89.3557 69.6974 91.6509 68.6063L89.9335 64.9937C88.162 65.8359 86.338 66.25 84.4422 66.25V70.25ZM91.6748 68.5947C94.0793 67.4122 96.1109 65.5157 97.7988 63.0206L94.4856 60.7794C93.1068 62.8176 91.5718 64.1878 89.9095 65.0053L91.6748 68.5947ZM97.7874 63.0372C99.5354 60.5082 100.848 57.2761 101.786 53.4227L97.8989 52.4773C97.0362 56.0239 95.8823 58.7585 94.4969 60.7628L97.7874 63.0372ZM101.781 53.4392C102.768 49.5268 103.242 44.767 103.242 39.2H99.2422C99.2422 44.5663 98.7827 48.9732 97.9029 52.4608L101.781 53.4392ZM166.45 55.5L164.533 54.9304L164.53 54.9395L166.45 55.5ZM160.95 66.85L162.529 68.0779L160.95 66.85ZM152.65 73.55L151.817 71.7319L151.809 71.7352L152.65 73.55ZM132.2 73.55L131.352 75.3614L131.359 75.3648L132.2 73.55ZM124 66.85L122.421 68.0779L124 66.85ZM118.5 55.5L116.579 56.0568L116.58 56.0605L118.5 55.5ZM124 11.5L125.579 12.7279L125.585 12.7194L124 11.5ZM132.2 4.75L131.359 2.93518L131.352 2.93862L132.2 4.75ZM152.65 4.75L151.809 6.56481L151.817 6.56812L152.65 4.75ZM160.95 11.5L159.365 12.7194L159.371 12.7279L160.95 11.5ZM166.45 22.9L164.529 23.4568L164.533 23.4696L166.45 22.9ZM157.85 25.45L155.906 25.9187L155.908 25.929L155.911 25.9392L157.85 25.45ZM154.15 16.45L152.493 17.5706L152.499 17.5789L152.505 17.5872L154.15 16.45ZM148.8 11.6L147.917 13.3947L147.929 13.4006L147.941 13.4063L148.8 11.6ZM136.1 11.6L136.959 13.4063L136.971 13.4006L136.983 13.3947L136.1 11.6ZM130.75 16.45L132.407 17.5706L130.75 16.45ZM127.05 25.45L125.11 24.9649L125.107 24.9773L127.05 25.45ZM127.05 52.95L125.107 53.4227L125.109 53.4309L125.111 53.4392L127.05 52.95ZM130.75 61.9L132.407 60.7794L130.75 61.9ZM136.1 66.8L135.217 68.5947L135.229 68.6006L135.241 68.6063L136.1 66.8ZM148.8 66.8L149.659 68.6063L149.671 68.6006L149.683 68.5947L148.8 66.8ZM154.15 61.9L152.505 60.7628L152.499 60.7711L152.493 60.7794L154.15 61.9ZM157.85 52.95L155.911 52.4608L155.909 52.469L155.907 52.4773L157.85 52.95ZM166.5 39.2C166.5 45.3292 165.831 50.5618 164.533 54.9304L168.367 56.0696C169.803 51.2382 170.5 45.6041 170.5 39.2H166.5ZM164.53 54.9395C163.25 59.3228 161.516 62.8642 159.371 65.6221L162.529 68.0779C165.05 64.8358 166.983 60.8105 168.37 56.0605L164.53 54.9395ZM159.371 65.6221C157.219 68.389 154.701 70.4097 151.817 71.7319L153.483 75.3681C156.999 73.757 160.014 71.311 162.529 68.0779L159.371 65.6221ZM151.809 71.7352C148.917 73.0748 145.805 73.75 142.45 73.75V77.75C146.361 77.75 150.05 76.9585 153.491 75.3648L151.809 71.7352ZM142.45 73.75C139.059 73.75 135.93 73.0737 133.041 71.7352L131.359 75.3648C134.803 76.9596 138.508 77.75 142.45 77.75V73.75ZM133.048 71.7386C130.228 70.4188 127.737 68.3976 125.579 65.6221L122.421 68.0779C124.929 71.3024 127.905 73.7479 131.352 75.3614L133.048 71.7386ZM125.579 65.6221C123.434 62.8642 121.7 59.3228 120.42 54.9395L116.58 56.0605C117.967 60.8105 119.9 64.8358 122.421 68.0779L125.579 65.6221ZM120.421 54.9432C119.153 50.57 118.5 45.3328 118.5 39.2H114.5C114.5 45.6005 115.18 51.23 116.579 56.0568L120.421 54.9432ZM118.5 39.2C118.5 33.0672 119.153 27.83 120.421 23.4568L116.579 22.3432C115.18 27.17 114.5 32.7994 114.5 39.2H118.5ZM120.421 23.4568C121.701 19.0393 123.436 15.4833 125.579 12.7279L122.421 10.2721C119.898 13.5167 117.965 17.5607 116.579 22.3432L120.421 23.4568ZM125.585 12.7194C127.745 9.91216 130.234 7.87859 133.048 6.56138L131.352 2.93862C127.9 4.55474 124.922 7.02117 122.415 10.2806L125.585 12.7194ZM133.041 6.56479C135.93 5.2263 139.059 4.54999 142.45 4.54999V0.549994C138.508 0.549994 134.803 1.34035 131.359 2.9352L133.041 6.56479ZM142.45 4.54999C145.805 4.54999 148.917 5.22517 151.809 6.56479L153.491 2.9352C150.05 1.34148 146.361 0.549994 142.45 0.549994V4.54999ZM151.817 6.56812C154.696 7.88773 157.212 9.92083 159.365 12.7194L162.535 10.2806C160.021 7.0125 157.004 4.5456 153.483 2.93187L151.817 6.56812ZM159.371 12.7279C161.514 15.4833 163.249 19.0393 164.529 23.4568L168.371 22.3432C166.985 17.5607 165.052 13.5167 162.529 10.2721L159.371 12.7279ZM164.533 23.4696C165.831 27.8382 166.5 33.0708 166.5 39.2H170.5C170.5 32.7959 169.803 27.1618 168.367 22.3304L164.533 23.4696ZM161.25 39.2C161.25 33.633 160.776 28.8732 159.789 24.9608L155.911 25.9392C156.791 29.4268 157.25 33.8337 157.25 39.2H161.25ZM159.794 24.9813C158.858 21.096 157.545 17.8447 155.795 15.3128L152.505 17.5872C153.888 19.5886 155.042 22.3373 155.906 25.9187L159.794 24.9813ZM155.807 15.3294C154.116 12.8307 152.077 10.9436 149.659 9.79373L147.941 13.4063C149.589 14.1898 151.117 15.536 152.493 17.5706L155.807 15.3294ZM149.683 9.8053C147.383 8.67441 144.965 8.09999 142.45 8.09999V12.1C144.335 12.1 146.15 12.5256 147.917 13.3947L149.683 9.8053ZM142.45 8.09999C139.935 8.09999 137.517 8.67441 135.217 9.8053L136.983 13.3947C138.75 12.5256 140.565 12.1 142.45 12.1V8.09999ZM135.241 9.79373C132.823 10.9436 130.784 12.8307 129.093 15.3294L132.407 17.5706C133.783 15.536 135.311 14.1898 136.959 13.4063L135.241 9.79373ZM129.093 15.3294C127.388 17.8509 126.079 21.0897 125.11 24.9649L128.99 25.9351C129.888 22.3436 131.046 19.5824 132.407 17.5706L129.093 15.3294ZM125.107 24.9773C124.157 28.883 123.7 33.6368 123.7 39.2H127.7C127.7 33.8299 128.143 29.417 128.993 25.9227L125.107 24.9773ZM123.7 39.2C123.7 44.7632 124.157 49.517 125.107 53.4227L128.993 52.4773C128.143 48.983 127.7 44.5701 127.7 39.2H123.7ZM125.111 53.4392C126.08 57.2823 127.39 60.502 129.093 63.0206L132.407 60.7794C131.044 58.7647 129.886 56.0177 128.989 52.4608L125.111 53.4392ZM129.093 63.0206C130.781 65.5157 132.813 67.4122 135.217 68.5947L136.983 65.0053C135.32 64.1878 133.785 62.8176 132.407 60.7794L129.093 63.0206ZM135.241 68.6063C137.536 69.6974 139.946 70.25 142.45 70.25V66.25C140.554 66.25 138.73 65.8359 136.959 64.9937L135.241 68.6063ZM142.45 70.25C144.954 70.25 147.364 69.6974 149.659 68.6063L147.941 64.9937C146.17 65.8359 144.346 66.25 142.45 66.25V70.25ZM149.683 68.5947C152.087 67.4122 154.119 65.5157 155.807 63.0206L152.493 60.7794C151.115 62.8176 149.58 64.1878 147.917 65.0053L149.683 68.5947ZM155.795 63.0372C157.543 60.5082 158.856 57.2761 159.793 53.4227L155.907 52.4773C155.044 56.0239 153.89 58.7585 152.505 60.7628L155.795 63.0372ZM159.789 53.4392C160.776 49.5268 161.25 44.767 161.25 39.2H157.25C157.25 44.5663 156.791 48.9732 155.911 52.4608L159.789 53.4392ZM204.058 16.7H206.058V14.7H204.058V16.7ZM204.058 38.05H202.058V40.05H204.058V38.05ZM224.408 38.05H226.408V36.05H224.408V38.05ZM224.408 44.8V46.8H226.408V44.8H224.408ZM204.058 44.8V42.8H202.058V44.8H204.058ZM204.058 66.3V68.3H206.058V66.3H204.058ZM196.758 66.3H194.758V68.3H196.758V66.3ZM196.758 44.8H198.758V42.8H196.758V44.8ZM176.508 44.8H174.508V46.8H176.508V44.8ZM176.508 38.05V36.05H174.508V38.05H176.508ZM196.758 38.05V40.05H198.758V38.05H196.758ZM196.758 16.7V14.7H194.758V16.7H196.758ZM202.058 16.7V38.05H206.058V16.7H202.058ZM204.058 40.05H224.408V36.05H204.058V40.05ZM222.408 38.05V44.8H226.408V38.05H222.408ZM224.408 42.8H204.058V46.8H224.408V42.8ZM202.058 44.8V66.3H206.058V44.8H202.058ZM204.058 64.3H196.758V68.3H204.058V64.3ZM198.758 66.3V44.8H194.758V66.3H198.758ZM196.758 42.8H176.508V46.8H196.758V42.8ZM178.508 44.8V38.05H174.508V44.8H178.508ZM176.508 40.05H196.758V36.05H176.508V40.05ZM198.758 38.05V16.7H194.758V38.05H198.758ZM196.758 18.7H204.058V14.7H196.758V18.7Z" fill="black" mask="url(#path-1-outside-1_1510_1815)"/>
</svg>
