<svg width="64" height="64" viewBox="0 0 64 64" fill="none" xmlns="http://www.w3.org/2000/svg">
<path d="M24 26.6667C24 36.976 32 45.3333 32 45.3333C32 45.3333 40 36.976 40 26.6667C40 16.3574 32 8 32 8C32 8 24 16.3574 24 26.6667Z" stroke="black" stroke-width="2" stroke-linejoin="round"/>
<path d="M16.8825 21.3334C10.9711 18.7899 5.33325 18.6667 5.33325 18.6667C5.33325 18.6667 5.58851 30.3504 12.9523 37.7144C20.3161 45.0782 31.9999 45.3334 31.9999 45.3334C31.9999 45.3334 43.6837 45.0782 51.0477 37.7144C58.4114 30.3504 58.6666 18.6667 58.6666 18.6667C58.6666 18.6667 53.0287 18.7899 47.1175 21.3334" stroke="black" stroke-width="2" stroke-linecap="round" stroke-linejoin="round"/>
<path d="M32.0551 45.3333C31.6117 48.8888 33.761 56 41.3693 56C46.6914 56 49.3524 50.6666 58.6666 56C57.5999 50.6664 55.466 47.253 52.3543 45.3333M31.9447 45.3333C32.3882 48.8888 30.2389 56 22.6307 56C17.3084 56 14.6473 50.6666 5.33325 56C6.40005 50.6664 8.53373 47.253 11.6454 45.3333" stroke="black" stroke-width="2" stroke-linecap="round" stroke-linejoin="round"/>
</svg>
