<svg width="64" height="64" viewBox="0 0 64 64" fill="none" xmlns="http://www.w3.org/2000/svg">
<path d="M48 5.33331V10.6666M16 5.33331V10.6666" stroke="black" stroke-width="1.5" stroke-linecap="round" stroke-linejoin="round"/>
<path d="M31.9882 34.6667H32.0122M31.9882 45.3334H32.0122M42.6428 34.6667H42.6668M21.3335 34.6667H21.3574M21.3335 45.3334H21.3574" stroke="black" stroke-width="2" stroke-linecap="round" stroke-linejoin="round"/>
<path d="M9.3335 21.3333H54.6668" stroke="black" stroke-width="2" stroke-linecap="round" stroke-linejoin="round"/>
<path d="M6.6665 32.6485C6.6665 21.0292 6.6665 15.2194 10.0055 11.6097C13.3445 8 18.7185 8 29.4665 8H34.5332C45.2812 8 50.6553 8 53.9942 11.6097C57.3332 15.2194 57.3332 21.0292 57.3332 32.6485V34.0181C57.3332 45.6376 57.3332 51.4472 53.9942 55.0571C50.6553 58.6667 45.2812 58.6667 34.5332 58.6667H29.4665C18.7185 58.6667 13.3445 58.6667 10.0055 55.0571C6.6665 51.4472 6.6665 45.6376 6.6665 34.0181V32.6485Z" stroke="black" stroke-width="2" stroke-linecap="round" stroke-linejoin="round"/>
<path d="M8 21.3333H56" stroke="black" stroke-width="2" stroke-linecap="round" stroke-linejoin="round"/>
</svg>
