<svg width="1440" height="451" viewBox="0 0 1440 451" fill="none" xmlns="http://www.w3.org/2000/svg">
<rect x="-2.41406" y="1.45947" width="1442.21" height="448.905" fill="#06B0BA"/>
<g opacity="0.3">
<rect x="107.977" y="15.9434" width="11.1096" height="110.391" rx="5.55478" transform="rotate(90 107.977 15.9434)" fill="white"/>
<rect x="78.9961" y="35.4072" width="11.1096" height="81.4094" rx="5.55478" transform="rotate(90 78.9961 35.4072)" fill="white"/>
<rect x="93.5742" y="54.8721" width="11.1096" height="95.9869" rx="5.55478" transform="rotate(90 93.5742 54.8721)" fill="white"/>
<rect x="64.0156" y="74.3359" width="11.1096" height="66.427" rx="5.55478" transform="rotate(90 64.0156 74.3359)" fill="white"/>
<rect x="104.305" y="93.7998" width="11.1096" height="106.718" rx="5.55478" transform="rotate(90 104.305 93.7998)" fill="white"/>
<rect x="75.7578" y="113.264" width="11.1096" height="78.1701" rx="5.55478" transform="rotate(90 75.7578 113.264)" fill="white"/>
<rect x="93.5742" y="132.729" width="11.1096" height="95.9869" rx="5.55478" transform="rotate(90 93.5742 132.729)" fill="white"/>
<rect x="87.5" y="152.192" width="11.1096" height="89.9129" rx="5.55478" transform="rotate(90 87.5 152.192)" fill="white"/>
<rect x="77.582" y="171.656" width="11.1096" height="79.9923" rx="5.55478" transform="rotate(90 77.582 171.656)" fill="white"/>
<rect x="112.809" y="191.121" width="11.1096" height="115.221" rx="5.55478" transform="rotate(90 112.809 191.121)" fill="white"/>
<rect x="100.863" y="210.585" width="11.1096" height="103.276" rx="5.55478" transform="rotate(90 100.863 210.585)" fill="white"/>
</g>
<g opacity="0.3">
<rect x="107.977" y="229.694" width="11.1096" height="110.391" rx="5.55478" transform="rotate(90 107.977 229.694)" fill="white"/>
<rect x="78.9961" y="249.158" width="11.1096" height="81.4094" rx="5.55478" transform="rotate(90 78.9961 249.158)" fill="white"/>
<rect x="93.5742" y="268.623" width="11.1096" height="95.9869" rx="5.55478" transform="rotate(90 93.5742 268.623)" fill="white"/>
<rect x="64.0156" y="288.087" width="11.1096" height="66.427" rx="5.55478" transform="rotate(90 64.0156 288.087)" fill="white"/>
<rect x="104.305" y="307.551" width="11.1096" height="106.718" rx="5.55478" transform="rotate(90 104.305 307.551)" fill="white"/>
<rect x="75.7578" y="327.015" width="11.1096" height="78.1701" rx="5.55478" transform="rotate(90 75.7578 327.015)" fill="white"/>
<rect x="93.5742" y="346.479" width="11.1096" height="95.9869" rx="5.55478" transform="rotate(90 93.5742 346.479)" fill="white"/>
<rect x="87.5" y="365.943" width="11.1096" height="89.9129" rx="5.55478" transform="rotate(90 87.5 365.943)" fill="white"/>
<rect x="77.582" y="385.407" width="11.1096" height="79.9923" rx="5.55478" transform="rotate(90 77.582 385.407)" fill="white"/>
<rect x="112.809" y="404.872" width="11.1096" height="115.221" rx="5.55478" transform="rotate(90 112.809 404.872)" fill="white"/>
<rect x="100.863" y="424.336" width="11.1096" height="103.276" rx="5.55478" transform="rotate(90 100.863 424.336)" fill="white"/>
</g>
<g opacity="0.3">
<rect x="1329.41" y="435.446" width="11.1096" height="110.391" rx="5.55478" transform="rotate(-90 1329.41 435.446)" fill="white"/>
<rect x="1358.39" y="415.982" width="11.1096" height="81.4094" rx="5.55478" transform="rotate(-90 1358.39 415.982)" fill="white"/>
<rect x="1343.81" y="396.517" width="11.1096" height="95.9869" rx="5.55478" transform="rotate(-90 1343.81 396.517)" fill="white"/>
<rect x="1373.37" y="377.053" width="11.1096" height="66.427" rx="5.55478" transform="rotate(-90 1373.37 377.053)" fill="white"/>
<rect x="1333.08" y="357.589" width="11.1096" height="106.718" rx="5.55478" transform="rotate(-90 1333.08 357.589)" fill="white"/>
<rect x="1361.63" y="338.125" width="11.1096" height="78.1701" rx="5.55478" transform="rotate(-90 1361.63 338.125)" fill="white"/>
<rect x="1343.81" y="318.661" width="11.1096" height="95.9869" rx="5.55478" transform="rotate(-90 1343.81 318.661)" fill="white"/>
<rect x="1349.89" y="299.197" width="11.1096" height="89.9129" rx="5.55478" transform="rotate(-90 1349.89 299.197)" fill="white"/>
<rect x="1359.8" y="279.733" width="11.1096" height="79.9923" rx="5.55478" transform="rotate(-90 1359.8 279.733)" fill="white"/>
<rect x="1324.58" y="260.268" width="11.1096" height="115.221" rx="5.55478" transform="rotate(-90 1324.58 260.268)" fill="white"/>
<rect x="1336.52" y="240.804" width="11.1096" height="103.276" rx="5.55478" transform="rotate(-90 1336.52 240.804)" fill="white"/>
</g>
<g opacity="0.3">
<rect x="1329.41" y="221.695" width="11.1096" height="110.391" rx="5.55478" transform="rotate(-90 1329.41 221.695)" fill="white"/>
<rect x="1358.39" y="202.231" width="11.1096" height="81.4094" rx="5.55478" transform="rotate(-90 1358.39 202.231)" fill="white"/>
<rect x="1343.81" y="182.766" width="11.1096" height="95.9869" rx="5.55478" transform="rotate(-90 1343.81 182.766)" fill="white"/>
<rect x="1373.37" y="163.302" width="11.1096" height="66.427" rx="5.55478" transform="rotate(-90 1373.37 163.302)" fill="white"/>
<rect x="1333.08" y="143.838" width="11.1096" height="106.718" rx="5.55478" transform="rotate(-90 1333.08 143.838)" fill="white"/>
<rect x="1361.63" y="124.375" width="11.1096" height="78.1701" rx="5.55478" transform="rotate(-90 1361.63 124.375)" fill="white"/>
<rect x="1343.81" y="104.91" width="11.1096" height="95.9869" rx="5.55478" transform="rotate(-90 1343.81 104.91)" fill="white"/>
<rect x="1349.89" y="85.4458" width="11.1096" height="89.9129" rx="5.55478" transform="rotate(-90 1349.89 85.4458)" fill="white"/>
<rect x="1359.8" y="65.9819" width="11.1096" height="79.9923" rx="5.55478" transform="rotate(-90 1359.8 65.9819)" fill="white"/>
<rect x="1324.58" y="46.5171" width="11.1096" height="115.221" rx="5.55478" transform="rotate(-90 1324.58 46.5171)" fill="white"/>
<rect x="1336.52" y="27.0532" width="11.1096" height="103.276" rx="5.55478" transform="rotate(-90 1336.52 27.0532)" fill="white"/>
</g>
</svg>
