<svg width="64" height="64" viewBox="0 0 64 64" fill="none" xmlns="http://www.w3.org/2000/svg">
<path d="M22.3883 6.80522C26.3214 4.36829 29.7542 5.35034 31.8164 6.91464C32.662 7.55602 33.0846 7.87674 33.3334 7.87674C33.5822 7.87674 34.0049 7.55602 34.8505 6.91464C36.9126 5.35034 40.3454 4.36829 44.2785 6.80522C49.4404 10.0034 50.6083 20.5544 38.7022 29.456C36.4345 31.1515 35.3006 31.9989 33.3334 31.9989C31.3662 31.9989 30.2324 31.1515 27.9646 29.456C16.0586 20.5544 17.2266 10.0034 22.3883 6.80522Z" stroke="black" stroke-width="2" stroke-linecap="round"/>
<path d="M10.6667 37.3333H17.0529C17.8373 37.3333 18.611 37.5101 19.3125 37.8496L24.7578 40.4842C25.4594 40.8237 26.233 41.0002 27.0174 41.0002H29.7977C32.4867 41.0002 34.6667 43.1098 34.6667 45.712C34.6667 45.817 34.5947 45.9096 34.4902 45.9384L27.7145 47.812C26.4989 48.148 25.1974 48.0309 24.0667 47.4837L18.2457 44.6674" stroke="black" stroke-width="2" stroke-linecap="round" stroke-linejoin="round"/>
<path d="M34.6667 44L46.9142 40.2371C49.0854 39.5605 51.4323 40.3627 52.7923 42.2461C53.7758 43.6077 53.3753 45.5579 51.9428 46.3845L31.9011 57.948C30.6265 58.6835 29.1225 58.8629 27.7206 58.4469L10.6667 53.3864" stroke="black" stroke-width="2" stroke-linecap="round" stroke-linejoin="round"/>
</svg>
