<svg width="701" height="441" viewBox="0 0 701 441" fill="none" xmlns="http://www.w3.org/2000/svg">
<g opacity="0.4">
<path opacity="0.26" d="M704.444 -43C691.746 60.819 595.341 111.445 509.32 151.454C460.543 174.141 409.991 185.232 359.243 201.852C318.233 215.282 288.519 239.063 259.117 269.866C230.948 299.376 204.554 328.798 165.68 344.347C131.066 358.193 92.505 352.023 58.8645 369.1C24.4132 386.589 2 404.613 2 444.697" stroke="white" stroke-width="3" stroke-linecap="round"/>
<path opacity="0.26" d="M704.508 -31.0031C691.81 72.816 595.405 123.442 509.384 163.451C460.607 186.138 410.055 197.229 359.307 213.849C318.297 227.279 288.583 251.06 259.181 281.863C231.012 311.373 204.617 340.795 165.744 356.344C131.13 370.19 92.5689 364.02 58.9284 381.097C24.4772 398.586 2.06393 416.61 2.06393 456.693" stroke="white" stroke-width="3" stroke-linecap="round"/>
<path opacity="0.26" d="M704.571 -19.0061C691.874 84.8129 595.469 135.439 509.448 175.448C460.671 198.135 410.119 209.225 359.371 225.846C318.361 239.276 288.647 263.057 259.245 293.86C231.076 323.37 204.681 352.792 165.808 368.341C131.194 382.187 92.6329 376.017 58.9923 393.094C24.5411 410.583 2.12787 428.606 2.12787 468.69" stroke="white" stroke-width="3" stroke-linecap="round"/>
<path opacity="0.26" d="M704.635 -7.00916C691.938 96.8099 595.533 147.436 509.512 187.445C460.735 210.132 410.183 221.222 359.435 237.843C318.425 251.273 288.711 275.054 259.308 305.857C231.14 335.367 204.745 364.789 165.872 380.338C131.258 394.184 92.6968 388.014 59.0563 405.091C24.605 422.58 2.1918 440.603 2.1918 480.687" stroke="white" stroke-width="3" stroke-linecap="round"/>
<path opacity="0.26" d="M704.699 4.98779C692.002 108.807 595.596 159.433 509.576 199.442C460.799 222.129 410.247 233.219 359.498 249.84C318.489 263.27 288.775 287.051 259.372 317.854C231.204 347.364 204.809 376.786 165.936 392.335C131.322 406.181 92.7607 400.011 59.1202 417.088C24.669 434.577 2.25574 452.6 2.25574 492.684" stroke="white" stroke-width="3" stroke-linecap="round"/>
<path opacity="0.26" d="M704.763 16.9849C692.066 120.804 595.66 171.43 509.64 211.439C460.862 234.126 410.311 245.216 359.562 261.837C318.553 275.267 288.839 299.048 259.436 329.851C231.268 359.361 204.873 388.783 166 404.332C131.386 418.178 92.8245 412.008 59.184 429.085C24.7327 446.574 2.31948 464.597 2.31948 504.681" stroke="white" stroke-width="3" stroke-linecap="round"/>
<path opacity="0.26" d="M704.827 28.9818C692.13 132.801 595.724 183.427 509.704 223.436C460.926 246.123 410.375 257.213 359.626 273.834C318.617 287.264 288.903 311.045 259.5 341.848C231.332 371.358 204.937 400.78 166.064 416.329C131.45 430.175 92.8884 424.005 59.2479 441.082C24.7966 458.571 2.38342 476.594 2.38342 516.678" stroke="white" stroke-width="3" stroke-linecap="round"/>
<path opacity="0.26" d="M704.891 40.9788C692.194 144.798 595.788 195.424 509.768 235.433C460.99 258.12 410.439 269.21 359.69 285.831C318.681 299.261 288.967 323.042 259.564 353.845C231.396 383.355 205.001 412.777 166.128 428.326C131.514 442.172 92.9523 436.002 59.3118 453.079C24.8606 470.568 2.44735 488.591 2.44735 528.675" stroke="white" stroke-width="3" stroke-linecap="round"/>
<path opacity="0.26" d="M704.955 52.9757C692.258 156.795 595.852 207.42 509.832 247.43C461.054 270.117 410.503 281.207 359.754 297.827C318.745 311.258 289.031 335.039 259.628 365.842C231.46 395.352 205.065 424.774 166.192 440.323C131.578 454.169 93.0163 447.999 59.3758 465.076C24.9245 482.565 2.51128 500.588 2.51128 540.672" stroke="white" stroke-width="3" stroke-linecap="round"/>
<path opacity="0.26" d="M705.019 64.9727C692.322 168.792 595.916 219.417 509.896 259.427C461.118 282.114 410.567 293.204 359.818 309.824C318.809 323.255 289.095 347.036 259.692 377.839C231.524 407.349 205.129 436.771 166.256 452.32C131.642 466.166 93.0802 459.996 59.4397 477.073C24.9885 494.562 2.57522 512.585 2.57522 552.669" stroke="white" stroke-width="3" stroke-linecap="round"/>
<path opacity="0.26" d="M705.083 76.9696C692.385 180.789 595.98 231.414 509.96 271.424C461.182 294.111 410.631 305.201 359.882 321.821C318.873 335.252 289.159 359.033 259.756 389.836C231.587 419.345 205.193 448.768 166.32 464.317C131.706 478.163 93.1441 471.993 59.5036 489.07C25.0524 506.558 2.63915 524.582 2.63915 564.666" stroke="white" stroke-width="3" stroke-linecap="round"/>
<path opacity="0.26" d="M705.147 88.9666C692.449 192.786 596.044 243.411 510.023 283.421C461.246 306.108 410.695 317.198 359.946 333.818C318.936 347.249 289.223 371.03 259.82 401.833C231.651 431.342 205.257 460.765 166.384 476.314C131.77 490.16 93.2081 483.99 59.5676 501.067C25.1163 518.555 2.70309 536.579 2.70309 576.663" stroke="white" stroke-width="3" stroke-linecap="round"/>
<path opacity="0.26" d="M705.21 100.964C692.513 204.783 596.108 255.408 510.087 295.418C461.31 318.105 410.758 329.195 360.01 345.815C319 359.246 289.286 383.027 259.883 413.83C231.715 443.339 205.32 472.762 166.447 488.311C131.833 502.157 93.2718 495.987 59.6313 513.064C25.1801 530.552 2.76683 548.576 2.76683 588.66" stroke="white" stroke-width="3" stroke-linecap="round"/>
<path opacity="0.26" d="M705.274 112.96C692.577 216.779 596.172 267.405 510.151 307.415C461.374 330.102 410.822 341.192 360.073 357.812C319.064 371.243 289.35 395.024 259.947 425.827C231.779 455.336 205.384 484.759 166.511 500.308C131.897 514.154 93.3358 507.984 59.6952 525.061C25.244 542.549 2.83076 560.573 2.83076 600.657" stroke="white" stroke-width="3" stroke-linecap="round"/>
<path opacity="0.26" d="M705.338 124.958C692.641 228.777 596.235 279.402 510.215 319.412C461.437 342.099 410.886 353.189 360.137 369.809C319.128 383.24 289.414 407.021 260.011 437.824C231.843 467.333 205.448 496.756 166.575 512.305C131.961 526.151 93.3997 519.981 59.7592 537.058C25.3079 554.546 2.8947 572.57 2.8947 612.654" stroke="white" stroke-width="3" stroke-linecap="round"/>
<path opacity="0.26" d="M705.402 136.954C692.705 240.773 596.299 291.399 510.279 331.409C461.501 354.096 410.95 365.186 360.201 381.806C319.192 395.237 289.478 419.018 260.075 449.821C231.907 479.33 205.512 508.753 166.639 524.302C132.025 538.148 93.4636 531.978 59.8231 549.055C25.3719 566.543 2.95863 584.567 2.95863 624.651" stroke="white" stroke-width="3" stroke-linecap="round"/>
<path opacity="0.26" d="M705.466 148.951C692.769 252.77 596.363 303.396 510.343 343.406C461.565 366.093 411.014 377.183 360.265 393.803C319.256 407.234 289.542 431.015 260.139 461.818C231.971 491.327 205.576 520.75 166.703 536.299C132.089 550.145 93.5276 543.975 59.887 561.052C25.4358 578.54 3.02257 596.564 3.02257 636.648" stroke="white" stroke-width="3" stroke-linecap="round"/>
<path opacity="0.26" d="M705.53 160.948C692.833 264.767 596.427 315.393 510.407 355.403C461.629 378.09 411.078 389.18 360.329 405.8C319.32 419.231 289.606 443.012 260.203 473.815C232.035 503.324 205.64 532.747 166.767 548.296C132.153 562.141 93.5915 555.972 59.951 573.049C25.4997 590.537 3.0865 608.561 3.0865 648.645" stroke="white" stroke-width="3" stroke-linecap="round"/>
<path opacity="0.26" d="M705.594 172.945C692.897 276.764 596.491 327.39 510.471 367.4C461.693 390.087 411.142 401.177 360.393 417.797C319.384 431.228 289.67 455.009 260.267 485.811C232.099 515.321 205.704 544.744 166.831 560.293C132.217 574.138 93.6554 567.969 60.0149 585.046C25.5637 602.534 3.15044 620.558 3.15044 660.642" stroke="white" stroke-width="3" stroke-linecap="round"/>
<path opacity="0.26" d="M705.658 184.942C692.961 288.761 596.555 339.387 510.535 379.396C461.757 402.084 411.206 413.174 360.457 429.794C319.448 443.225 289.734 467.005 260.331 497.808C232.163 527.318 205.768 556.741 166.895 572.29C132.281 586.135 93.7194 579.965 60.0789 597.043C25.6276 614.531 3.21437 632.555 3.21437 672.639" stroke="white" stroke-width="3" stroke-linecap="round"/>
<path opacity="0.26" d="M705.722 196.939C693.025 300.758 596.619 351.384 510.599 391.393C461.821 414.081 411.27 425.171 360.521 441.791C319.512 455.222 289.798 479.002 260.395 509.805C232.227 539.315 205.832 568.737 166.959 584.287C132.345 598.132 93.7833 591.962 60.1428 609.039C25.6915 626.528 3.27831 644.552 3.27831 684.636" stroke="white" stroke-width="3" stroke-linecap="round"/>
<path opacity="0.26" d="M705.786 208.936C693.088 312.755 596.683 363.381 510.662 403.39C461.885 426.078 411.333 437.168 360.585 453.788C319.575 467.218 289.862 490.999 260.459 521.802C232.29 551.312 205.896 580.734 167.023 596.284C132.408 610.129 93.847 603.959 60.2065 621.036C25.7553 638.525 3.34205 656.549 3.34205 696.633" stroke="white" stroke-width="3" stroke-linecap="round"/>
<path opacity="0.26" d="M705.85 220.933C693.152 324.752 596.747 375.378 510.726 415.387C461.949 438.075 411.397 449.165 360.649 465.785C319.639 479.215 289.925 502.996 260.523 533.799C232.354 563.309 205.96 592.731 167.086 608.281C132.472 622.126 93.911 615.956 60.2705 633.033C25.8192 650.522 3.40598 668.546 3.40598 708.63" stroke="white" stroke-width="3" stroke-linecap="round"/>
<path opacity="0.26" d="M705.914 232.93C693.216 336.749 596.811 387.375 510.79 427.384C462.013 450.072 411.461 461.162 360.713 477.782C319.703 491.212 289.989 514.993 260.587 545.796C232.418 575.306 206.023 604.728 167.15 620.278C132.536 634.123 93.9749 627.953 60.3344 645.03C25.8832 662.519 3.46992 680.543 3.46992 720.627" stroke="white" stroke-width="3" stroke-linecap="round"/>
<path opacity="0.26" d="M705.977 244.927C693.28 348.746 596.875 399.372 510.854 439.381C462.077 462.069 411.525 473.159 360.777 489.779C319.767 503.209 290.053 526.99 260.651 557.793C232.482 587.303 206.087 616.725 167.214 632.275C132.6 646.12 94.0388 639.95 60.3983 657.027C25.9471 674.516 3.53385 692.54 3.53385 732.624" stroke="white" stroke-width="3" stroke-linecap="round"/>
<path opacity="0.26" d="M706.041 256.924C693.344 360.743 596.939 411.369 510.918 451.378C462.141 474.066 411.589 485.156 360.841 501.776C319.831 515.206 290.117 538.987 260.714 569.79C232.546 599.3 206.151 628.722 167.278 644.272C132.664 658.117 94.1028 651.947 60.4623 669.024C26.011 686.513 3.59779 704.537 3.59779 744.621" stroke="white" stroke-width="3" stroke-linecap="round"/>
<path opacity="0.26" d="M706.105 268.921C693.408 372.74 597.002 423.366 510.982 463.375C462.204 486.062 411.653 497.153 360.904 513.773C319.895 527.203 290.181 550.984 260.778 581.787C232.61 611.297 206.215 640.719 167.342 656.268C132.728 670.114 94.1667 663.944 60.5262 681.021C26.075 698.51 3.66172 716.534 3.66172 756.618" stroke="white" stroke-width="3" stroke-linecap="round"/>
<path opacity="0.26" d="M706.169 280.918C693.472 384.737 597.066 435.363 511.046 475.372C462.268 498.059 411.717 509.15 360.968 525.77C319.959 539.2 290.245 562.981 260.842 593.784C232.674 623.294 206.279 652.716 167.406 668.265C132.792 682.111 94.2306 675.941 60.5901 693.018C26.1389 710.507 3.72565 728.531 3.72565 768.614" stroke="white" stroke-width="3" stroke-linecap="round"/>
<path opacity="0.26" d="M706.233 292.915C693.536 396.734 597.13 447.36 511.11 487.369C462.332 510.056 411.781 521.146 361.032 537.767C320.023 551.197 290.309 574.978 260.906 605.781C232.738 635.291 206.343 664.713 167.47 680.262C132.856 694.108 94.2944 687.938 60.6539 705.015C26.2026 722.504 3.78941 740.528 3.78941 780.611" stroke="white" stroke-width="3" stroke-linecap="round"/>
<path opacity="0.26" d="M706.297 304.912C693.6 408.731 597.194 459.357 511.174 499.366C462.396 522.054 411.845 533.144 361.096 549.764C320.087 563.194 290.373 586.975 260.97 617.778C232.802 647.288 206.407 676.71 167.534 692.26C132.92 706.105 94.3585 699.935 60.718 717.012C26.2667 734.501 3.85352 752.525 3.85352 792.609" stroke="white" stroke-width="3" stroke-linecap="round"/>
<path opacity="0.26" d="M706.361 316.909C693.664 420.728 597.258 471.354 511.238 511.363C462.46 534.05 411.909 545.14 361.16 561.761C320.151 575.191 290.437 598.972 261.034 629.775C232.866 659.285 206.471 688.707 167.598 704.256C132.984 718.102 94.4223 711.932 60.7817 729.009C26.3305 746.498 3.91727 764.521 3.91727 804.605" stroke="white" stroke-width="3" stroke-linecap="round"/>
<path opacity="0.26" d="M706.425 328.906C693.727 432.725 597.322 483.351 511.302 523.36C462.524 546.047 411.973 557.137 361.224 573.758C320.215 587.188 290.501 610.969 261.098 641.772C232.93 671.282 206.535 700.704 167.662 716.253C133.048 730.099 94.4862 723.929 60.8457 741.006C26.3944 758.495 3.9812 776.518 3.9812 816.602" stroke="white" stroke-width="3" stroke-linecap="round"/>
<path opacity="0.26" d="M706.489 340.903C693.791 444.722 597.386 495.348 511.366 535.357C462.588 558.044 412.037 569.134 361.288 585.755C320.279 599.185 290.565 622.966 261.162 653.769C232.993 683.279 206.599 712.701 167.726 728.25C133.112 742.096 94.5501 735.926 60.9096 753.003C26.4584 770.492 4.04514 788.515 4.04514 828.599" stroke="white" stroke-width="3" stroke-linecap="round"/>
<path opacity="0.26" d="M706.553 352.9C693.855 456.719 597.45 507.344 511.429 547.354C462.652 570.041 412.101 581.131 361.352 597.751C320.342 611.182 290.629 634.963 261.226 665.766C233.057 695.276 206.663 724.698 167.79 740.247C133.175 754.093 94.6141 747.923 60.9736 765C26.5223 782.489 4.10907 800.512 4.10907 840.596" stroke="white" stroke-width="3" stroke-linecap="round"/>
<path opacity="0.26" d="M706.617 364.897C693.919 468.716 597.514 519.341 511.493 559.351C462.716 582.038 412.164 593.128 361.416 609.748C320.406 623.179 290.692 646.96 261.29 677.763C233.121 707.273 206.727 736.695 167.854 752.244C133.239 766.09 94.678 759.92 61.0375 776.997C26.5862 794.486 4.173 812.509 4.173 852.593" stroke="white" stroke-width="3" stroke-linecap="round"/>
<path opacity="0.26" d="M706.681 376.894C693.983 480.713 597.578 531.338 511.557 571.348C462.78 594.035 412.228 605.125 361.48 621.745C320.47 635.176 290.756 658.957 261.354 689.76C233.185 719.27 206.79 748.692 167.917 764.241C133.303 778.087 94.7419 771.917 61.1014 788.994C26.6502 806.483 4.23694 824.506 4.23694 864.59" stroke="white" stroke-width="3" stroke-linecap="round"/>
<path opacity="0.26" d="M706.744 388.891C694.047 492.71 597.642 543.335 511.621 583.345C462.844 606.032 412.292 617.122 361.544 633.742C320.534 647.173 290.82 670.954 261.418 701.757C233.249 731.266 206.854 760.689 167.981 776.238C133.367 790.084 94.8059 783.914 61.1654 800.991C26.7141 818.479 4.30087 836.503 4.30087 876.587" stroke="white" stroke-width="3" stroke-linecap="round"/>
<path opacity="0.26" d="M706.808 400.888C694.111 504.707 597.705 555.332 511.685 595.342C462.907 618.029 412.356 629.119 361.607 645.739C320.598 659.17 290.884 682.951 261.481 713.754C233.313 743.263 206.918 772.686 168.045 788.235C133.431 802.081 94.8696 795.911 61.2291 812.988C26.7779 830.476 4.36462 848.5 4.36462 888.584" stroke="white" stroke-width="3" stroke-linecap="round"/>
<path opacity="0.26" d="M706.872 412.885C694.175 516.704 597.769 567.33 511.749 607.339C462.971 630.026 412.42 641.116 361.671 657.737C320.662 671.167 290.948 694.948 261.545 725.751C233.377 755.261 206.982 784.683 168.109 800.232C133.495 814.078 94.9337 807.908 61.2932 824.985C26.8419 842.474 4.42871 860.497 4.42871 900.581" stroke="white" stroke-width="3" stroke-linecap="round"/>
<path opacity="0.26" d="M706.936 424.881C694.239 528.7 597.833 579.326 511.813 619.336C463.035 642.023 412.484 653.113 361.735 669.733C320.726 683.164 291.012 706.945 261.609 737.748C233.441 767.257 207.046 796.68 168.173 812.229C133.559 826.075 94.9975 819.905 61.357 836.982C26.9057 854.47 4.49249 872.494 4.49249 912.578" stroke="white" stroke-width="3" stroke-linecap="round"/>
<path opacity="0.26" d="M707 436.878C694.303 540.697 597.897 591.323 511.877 631.333C463.099 654.02 412.548 665.11 361.799 681.73C320.79 695.161 291.076 718.942 261.673 749.745C233.505 779.254 207.11 808.677 168.237 824.226C133.623 838.072 95.0614 831.902 61.4209 848.979C26.9697 866.467 4.55642 884.491 4.55642 924.575" stroke="white" stroke-width="3" stroke-linecap="round"/>
</g>
</svg>
