<svg width="349" height="349" viewBox="0 0 349 349" fill="none" xmlns="http://www.w3.org/2000/svg">
<path d="M291.54 64.6208L290.047 62.1569C277.413 41.3425 254.581 28.7995 230.514 30.3211C227.416 30.5137 224.336 30.9384 221.301 31.5915C199.411 36.2751 180.37 52.8246 172.441 74.0229C167.799 86.4892 166.501 100.84 157.692 110.738C146.224 123.609 126.764 124 109.649 123.483C92.5337 122.967 73.0525 123.406 61.6472 136.333C54.5346 144.43 52.2661 155.947 52.8384 166.822C54.3671 195.531 74.3718 221.203 99.8069 233.963C125.242 246.722 155.207 247.825 183.05 242.206C222.055 234.347 259.132 212.75 281.468 179.386C303.804 146.022 309.381 100.617 291.54 64.6208Z" fill="#F5F5F5"/>
<path d="M287.06 264.344C290.263 252.779 283.484 240.807 271.919 237.604C260.354 234.401 248.382 241.18 245.179 252.745C241.976 264.311 248.755 276.282 260.32 279.485C271.885 282.688 283.857 275.909 287.06 264.344Z" fill="#F5F5F5"/>
<path d="M331.864 324.779C331.864 324.877 261.408 324.961 174.507 324.961C87.6058 324.961 17.1357 324.877 17.1357 324.779C17.1357 324.682 87.5779 324.57 174.5 324.57C261.422 324.57 331.864 324.682 331.864 324.779Z" fill="#263238"/>
<path d="M146.887 297.739L145.219 317.758L139.342 333.218C139.246 333.482 139.205 333.762 139.22 334.042C139.235 334.322 139.307 334.596 139.43 334.848C139.553 335.1 139.725 335.325 139.937 335.509C140.148 335.693 140.394 335.832 140.661 335.919C140.975 336.013 141.307 336.031 141.629 335.973C141.952 335.915 142.256 335.782 142.518 335.584C145.875 332.981 157.985 323.425 158.125 322.176C158.299 320.563 161.384 300.88 161.384 300.88L146.887 297.739Z" fill="#455A64"/>
<path d="M140.661 335.919L158.446 319.9L158.271 321.38C158.153 322.19 158.139 322.63 157.608 323.139C152.884 327.68 147.906 331.949 142.699 335.926C142.155 336.345 141.303 336.136 140.654 335.926L140.661 335.919Z" fill="#263238"/>
<path d="M154.956 313.653C154.69 313.808 154.491 314.055 154.397 314.348C154.302 314.64 154.32 314.957 154.446 315.238C154.592 315.507 154.835 315.71 155.126 315.806C155.416 315.902 155.732 315.884 156.01 315.754C156.29 315.59 156.499 315.328 156.597 315.019C156.695 314.709 156.675 314.374 156.54 314.079C156.361 313.811 156.084 313.624 155.769 313.556C155.454 313.488 155.125 313.546 154.851 313.716" fill="white"/>
<path d="M146.154 327.676C146.036 327.718 145.701 326.622 144.57 325.938C143.439 325.254 142.329 325.38 142.315 325.24C142.301 325.1 142.574 325.059 143.048 325.045C143.671 325.036 144.283 325.211 144.807 325.547C145.339 325.885 145.761 326.37 146.022 326.943C146.21 327.362 146.21 327.662 146.154 327.676Z" fill="#263238"/>
<path d="M144.486 330.203C144.382 330.28 143.788 329.561 142.804 329.156C142.175 328.962 141.533 328.808 140.885 328.695C140.836 328.584 141.841 328.262 142.979 328.744C144.116 329.226 144.563 330.154 144.486 330.203Z" fill="#263238"/>
<path d="M149.17 324.528C149.065 324.612 148.192 323.502 146.692 322.734C145.191 321.966 143.788 321.862 143.795 321.729C143.802 321.597 145.289 321.499 146.894 322.343C148.499 323.188 149.274 324.479 149.17 324.528Z" fill="#263238"/>
<path d="M150.182 318.483C150.119 318.595 149.065 318.016 147.634 317.785C146.203 317.555 145.03 317.785 144.995 317.681C144.96 317.576 146.161 317.115 147.697 317.353C149.232 317.59 150.258 318.4 150.182 318.483Z" fill="#263238"/>
<path d="M150.824 312.62C150.747 312.725 149.707 311.922 148.185 311.852C146.664 311.783 145.519 312.355 145.463 312.236C145.407 312.118 145.68 311.964 146.161 311.741C146.809 311.474 147.511 311.362 148.21 311.413C148.908 311.464 149.586 311.676 150.189 312.034C150.649 312.313 150.859 312.578 150.824 312.62Z" fill="#263238"/>
<path d="M148.339 310.736C148.299 310.484 148.315 310.226 148.388 309.982C148.53 309.294 148.808 308.642 149.205 308.062C149.455 307.612 149.848 307.258 150.321 307.057C150.483 307.005 150.657 307.004 150.819 307.054C150.981 307.104 151.124 307.203 151.229 307.336C151.409 307.613 151.486 307.944 151.445 308.272C151.331 308.934 150.99 309.537 150.48 309.976C149.971 310.415 149.325 310.664 148.653 310.68C147.986 310.677 147.334 310.476 146.78 310.103C146.226 309.731 145.795 309.203 145.54 308.586C145.479 308.429 145.452 308.26 145.46 308.092C145.469 307.924 145.513 307.759 145.589 307.609C145.684 307.466 145.821 307.357 145.982 307.297C146.142 307.237 146.317 307.229 146.482 307.274C146.962 307.433 147.391 307.717 147.725 308.097C148.221 308.588 148.627 309.162 148.925 309.793C149.052 310.007 149.13 310.245 149.156 310.491C148.72 309.68 148.165 308.939 147.508 308.293C147.204 307.973 146.825 307.733 146.406 307.595C146.317 307.568 146.221 307.572 146.134 307.604C146.047 307.637 145.973 307.697 145.924 307.776C145.879 307.877 145.856 307.987 145.856 308.097C145.856 308.208 145.879 308.317 145.924 308.418C146.156 308.947 146.536 309.397 147.017 309.715C147.499 310.033 148.062 310.206 148.639 310.212C149.211 310.202 149.763 309.997 150.203 309.632C150.643 309.266 150.946 308.762 151.061 308.202C151.1 307.975 151.055 307.742 150.936 307.546C150.881 307.47 150.803 307.413 150.714 307.384C150.625 307.355 150.529 307.356 150.44 307.385C150.041 307.556 149.704 307.846 149.477 308.216C148.948 308.98 148.563 309.834 148.339 310.736Z" fill="#263238"/>
<path d="M197.813 297.906L197.073 314.861C197.073 314.861 214.055 321.31 214.223 324.458L181.298 324.2L181.368 297.739L197.813 297.906Z" fill="#455A64"/>
<path d="M186.904 313.36C186.586 313.452 186.313 313.658 186.139 313.939C185.965 314.221 185.902 314.556 185.961 314.882C186.043 315.203 186.245 315.481 186.525 315.658C186.806 315.835 187.144 315.897 187.469 315.831C187.807 315.734 188.096 315.514 188.278 315.214C188.46 314.914 188.523 314.556 188.453 314.212C188.334 313.885 188.093 313.617 187.781 313.465C187.468 313.312 187.109 313.287 186.778 313.395" fill="#E0E0E0"/>
<path d="M181.298 324.2L181.41 321.534L212.939 322.776C212.939 322.776 214.398 323.425 214.223 324.458L181.298 324.2Z" fill="#263238"/>
<path d="M197.604 314.7C197.604 314.861 196.794 314.931 195.999 315.44C195.203 315.95 194.777 316.62 194.603 316.557C194.428 316.494 194.7 315.566 195.677 314.966C196.655 314.365 197.646 314.554 197.604 314.7Z" fill="#263238"/>
<path d="M201.024 316.152C201.024 316.313 200.326 316.578 199.81 317.255C199.293 317.932 199.112 318.651 198.93 318.651C198.749 318.651 198.679 317.737 199.377 316.906C200.075 316.075 201.024 315.999 201.024 316.152Z" fill="#263238"/>
<path d="M202.979 320.305C202.832 320.305 202.616 319.53 203.035 318.651C203.453 317.771 204.207 317.429 204.277 317.569C204.347 317.709 203.872 318.169 203.537 318.895C203.202 319.621 203.118 320.291 202.979 320.305Z" fill="#263238"/>
<path d="M197.345 310.819C197.276 310.966 196.543 310.736 195.635 310.819C194.728 310.903 194.016 311.154 193.932 311.015C193.848 310.875 194.532 310.317 195.607 310.261C196.682 310.205 197.429 310.694 197.345 310.819Z" fill="#263238"/>
<path d="M203.118 170.487C203.118 171.54 198.93 312.983 198.93 312.983L178.423 313.758L173.104 186.254C173.104 186.254 167.911 251.706 167.911 253.116C167.911 254.526 162.075 314.254 162.075 314.254L142.922 313.402L144.318 178.688L146.81 159.367L201.205 159.919L203.118 170.487Z" fill="#263238"/>
<path d="M170.829 181.627C171.11 181.787 171.41 181.911 171.722 181.997C172.301 182.213 173.118 182.506 174.2 182.862L174.402 182.932V182.722C174.528 180.963 174.661 178.604 174.793 176.029C174.933 173.237 175.038 170.696 175.086 168.86C175.086 167.946 175.128 167.206 175.128 166.689C175.155 166.423 175.138 166.155 175.079 165.894C175.003 166.15 174.961 166.415 174.954 166.682C174.905 167.192 174.842 167.932 174.779 168.846C174.647 170.682 174.5 173.209 174.36 176.008C174.228 178.59 174.13 180.943 174.081 182.708L174.291 182.569C173.23 182.248 172.364 181.997 171.764 181.836C171.463 181.723 171.149 181.653 170.829 181.627Z" fill="#455A64"/>
<path d="M172.497 166.403C172.497 166.403 172.427 166.292 172.204 166.215C171.881 166.118 171.534 166.148 171.233 166.299C171.008 166.403 170.821 166.575 170.696 166.789C170.571 167.004 170.515 167.252 170.535 167.499C170.565 167.812 170.694 168.107 170.904 168.341C171.114 168.574 171.393 168.734 171.701 168.797C172.013 168.847 172.333 168.805 172.621 168.674C172.909 168.544 173.152 168.332 173.32 168.064C173.453 167.856 173.524 167.614 173.524 167.366C173.524 167.119 173.453 166.877 173.32 166.668C173.161 166.395 172.916 166.181 172.622 166.061C172.406 165.984 172.273 165.991 172.273 166.019C172.273 166.047 172.769 166.187 173.076 166.801C173.163 166.967 173.204 167.153 173.194 167.339C173.184 167.526 173.124 167.707 173.02 167.862C172.891 168.051 172.711 168.201 172.502 168.293C172.292 168.386 172.061 168.418 171.834 168.386C171.613 168.336 171.414 168.22 171.26 168.055C171.107 167.889 171.008 167.681 170.975 167.457C170.955 167.275 170.991 167.091 171.076 166.929C171.162 166.768 171.295 166.635 171.457 166.55C171.78 166.394 172.143 166.343 172.497 166.403Z" fill="#455A64"/>
<path d="M162.41 167.904C162.529 167.904 162.697 167.283 162.78 166.508C162.864 165.733 162.836 165.063 162.718 165.049C162.599 165.035 162.431 165.677 162.348 166.445C162.264 167.213 162.285 167.897 162.41 167.904Z" fill="#455A64"/>
<path d="M160.882 167.757C161.001 167.757 161.105 167.059 161.105 166.25C161.105 165.44 161.022 164.742 160.896 164.742C160.77 164.742 160.68 165.44 160.673 166.25C160.666 167.059 160.763 167.757 160.882 167.757Z" fill="#455A64"/>
<path d="M187.378 168.769C187.652 168.246 187.794 167.664 187.79 167.073C187.931 166.5 187.931 165.901 187.79 165.328C187.515 165.852 187.372 166.434 187.371 167.024C187.234 167.598 187.236 168.197 187.378 168.769Z" fill="#455A64"/>
<path d="M185.529 168.916C185.64 168.958 186.024 168.183 186.066 167.136C186.108 166.089 185.794 165.286 185.682 165.321C185.609 165.919 185.593 166.522 185.633 167.122C185.54 167.715 185.505 168.316 185.529 168.916Z" fill="#455A64"/>
<path d="M192.48 166.955C192.47 167.171 192.496 167.389 192.557 167.597C192.659 168.18 192.806 168.754 192.997 169.314C193.614 171.189 194.533 172.95 195.719 174.528C196.921 176.141 198.369 177.555 200.012 178.716C200.511 179.071 201.033 179.393 201.575 179.679C201.768 179.798 201.974 179.891 202.19 179.958C202.224 179.896 201.394 179.428 200.179 178.514C198.615 177.313 197.222 175.904 196.04 174.326C194.873 172.773 193.933 171.062 193.248 169.244C192.746 167.841 192.55 166.941 192.48 166.955Z" fill="#455A64"/>
<path d="M144.96 176.817C145.174 176.888 145.398 176.923 145.624 176.922C146.238 176.964 146.854 176.952 147.466 176.887C149.488 176.673 151.422 175.953 153.092 174.793C154.72 173.651 156.016 172.098 156.847 170.291C157.093 169.758 157.284 169.201 157.42 168.63C157.493 168.427 157.524 168.21 157.51 167.995C157.441 167.995 157.259 168.874 156.596 170.179C155.72 171.901 154.439 173.384 152.862 174.5C151.235 175.603 149.378 176.32 147.431 176.594C145.917 176.845 144.96 176.748 144.96 176.817Z" fill="#455A64"/>
<path d="M195.21 39.786C194.548 38.3188 193.598 36.9991 192.418 35.9051C191.82 35.365 191.113 34.9606 190.344 34.7196C189.575 34.4786 188.763 34.4068 187.964 34.5091C187.174 34.6332 186.446 35.0107 185.89 35.5849C185.333 36.159 184.979 36.8986 184.879 37.692L183.728 38.1248C186.045 39.3881 187.434 41.8521 188.46 44.2811C189.486 46.7102 189.556 49.0554 191.252 51.1076C192.453 49.4324 193.89 47.6176 193.96 45.5864C194.675 46.7969 194.923 48.2264 194.658 49.6069C195.353 49.0333 195.903 48.3055 196.267 47.4815C196.63 46.6575 196.797 45.76 196.752 44.8605C196.617 43.0763 196.09 41.3438 195.21 39.786Z" fill="#263238"/>
<path d="M186.366 35.7376C185.124 30.2862 178.102 29.6371 173.621 29.8186C169.139 30 164.958 32.3523 161.873 35.5422C158.788 38.732 156.687 42.6967 154.956 46.766L158.209 47.1569C157.748 47.1353 157.293 47.2666 156.914 47.5304C156.535 47.7942 156.254 48.1758 156.115 48.6157C155.869 49.504 155.848 50.4392 156.052 51.3379C156.345 53.5146 156.812 55.6643 157.448 57.7665C159.172 63.2528 162.564 68.069 165.901 72.7874C166.689 68.4878 165.824 64.0834 164.826 59.8326C164.477 58.3249 164.128 56.7125 164.651 55.2607C165.231 53.9595 166.245 52.9007 167.52 52.2662C168.756 51.5682 170.103 51.0936 171.338 50.3886C172.701 49.6009 173.892 48.5475 174.841 47.291C175.789 46.0345 176.475 44.6003 176.859 43.0736L186.366 35.7376Z" fill="#263238"/>
<path d="M162.676 51.1774L164.986 83.76C165.384 89.3021 167.08 97.357 175.819 96.324C183.33 94.8722 184.74 87.5292 184.37 82.364C184.188 79.907 184.049 77.8619 184.049 77.6106C184.049 77.6106 192.285 76.2146 192.299 67.9922C192.299 64.0066 191.65 55.7911 190.973 48.3714C190.622 44.526 188.835 40.9538 185.969 38.3667C183.102 35.7796 179.366 34.3674 175.505 34.4114H174.709C166.124 35.0117 161.845 42.6269 162.676 51.1774Z" fill="#FFBE9D"/>
<path d="M184.049 77.6106C180.237 77.6429 176.496 76.5793 173.271 74.5464C173.271 74.5464 175.959 80.5492 184.181 79.7186L184.049 77.6106Z" fill="#EB996E"/>
<path d="M177.25 52.8944C177.103 53.0759 176.091 52.3919 174.716 52.4687C173.341 52.5454 172.371 53.3063 172.217 53.1667C172.064 53.0271 172.28 52.7758 172.699 52.4268C173.265 51.9619 173.964 51.6904 174.695 51.652C175.412 51.6119 176.122 51.8054 176.719 52.2034C177.166 52.5175 177.327 52.8177 177.25 52.8944Z" fill="#263238"/>
<path d="M176.071 56.2309C176.076 56.5212 175.969 56.8024 175.771 57.0149C175.573 57.2273 175.3 57.3542 175.01 57.3686C174.868 57.381 174.725 57.3648 174.589 57.3211C174.453 57.2773 174.328 57.2068 174.22 57.1138C174.112 57.0208 174.024 56.9071 173.96 56.7794C173.897 56.6518 173.86 56.5127 173.851 56.3705C173.843 56.0803 173.951 55.7988 174.149 55.5872C174.348 55.3755 174.622 55.2506 174.912 55.2397C175.054 55.2263 175.196 55.2416 175.332 55.2845C175.468 55.3275 175.593 55.3973 175.701 55.4898C175.809 55.5822 175.898 55.6955 175.961 55.8228C176.025 55.9501 176.062 56.0889 176.071 56.2309Z" fill="#263238"/>
<path d="M181.48 62.1569C182.145 61.9426 182.835 61.8113 183.532 61.766C183.86 61.7241 184.16 61.6613 184.23 61.438C184.256 61.1038 184.178 60.7697 184.007 60.4817L183.023 58.0247C181.627 54.5347 180.663 51.652 180.803 51.6031C180.943 51.5543 182.199 54.3393 183.532 57.8293L184.474 60.3002C184.682 60.6894 184.746 61.1389 184.656 61.5706C184.61 61.6846 184.539 61.787 184.448 61.8703C184.358 61.9536 184.25 62.0157 184.132 62.0522C183.95 62.1005 183.762 62.124 183.574 62.122C182.88 62.2206 182.177 62.2323 181.48 62.1569Z" fill="#263238"/>
<path d="M176.238 47.7851C176.127 48.0992 175.01 47.9666 173.705 48.1411C172.399 48.3156 171.331 48.6995 171.157 48.4203C171.08 48.2876 171.262 47.9875 171.687 47.6804C172.248 47.3007 172.891 47.0592 173.563 46.9755C174.235 46.8918 174.917 46.9683 175.554 47.1988C176.036 47.3942 176.28 47.6385 176.238 47.7851Z" fill="#263238"/>
<path d="M189.479 49.2369C189.361 49.5022 188.265 49.3137 186.966 49.3835C185.668 49.4533 184.6 49.7046 184.44 49.4603C184.37 49.3416 184.565 49.0973 185.005 48.867C185.592 48.569 186.238 48.4045 186.897 48.3854C187.561 48.3534 188.224 48.4603 188.844 48.6995C189.312 48.8949 189.535 49.1183 189.479 49.2369Z" fill="#263238"/>
<path d="M163.409 57.2779C163.269 57.222 157.727 55.6655 157.964 61.2984C158.202 66.9312 163.814 65.5352 163.821 65.3747C163.828 65.2141 163.409 57.2779 163.409 57.2779Z" fill="#FFBE9D"/>
<path d="M162.006 63.3086C162.006 63.3086 161.908 63.3854 161.748 63.4691C161.528 63.5662 161.28 63.581 161.05 63.511C160.442 63.3226 159.905 62.3942 159.835 61.417C159.801 60.9419 159.872 60.4651 160.045 60.021C160.091 59.844 160.178 59.6803 160.299 59.5433C160.421 59.4063 160.572 59.2997 160.743 59.2323C160.853 59.1993 160.972 59.2055 161.079 59.2501C161.186 59.2946 161.274 59.3746 161.329 59.4766C161.413 59.6301 161.385 59.7488 161.413 59.7558C161.441 59.7628 161.531 59.6581 161.475 59.4277C161.434 59.2897 161.351 59.1678 161.238 59.0787C161.076 58.97 160.879 58.9275 160.687 58.9601C160.458 59.018 160.248 59.1329 160.076 59.2941C159.904 59.4552 159.775 59.6572 159.703 59.8814C159.478 60.3779 159.382 60.9227 159.423 61.4659C159.507 62.5966 160.121 63.6367 160.959 63.8391C161.113 63.8757 161.272 63.8777 161.427 63.8451C161.581 63.8126 161.727 63.7461 161.852 63.6506C161.999 63.4482 162.027 63.3226 162.006 63.3086Z" fill="#EB996E"/>
<path d="M189.807 52.35C189.654 52.5245 188.649 51.8474 187.273 51.9242C185.898 52.001 184.928 52.7618 184.768 52.6222C184.607 52.4826 184.837 52.2313 185.256 51.8823C185.825 51.4302 186.52 51.1666 187.246 51.1285C187.965 51.0904 188.678 51.2863 189.277 51.6869C189.717 51.987 189.856 52.2872 189.807 52.35Z" fill="#263238"/>
<path d="M187.853 56.2309C187.855 56.5214 187.745 56.8017 187.547 57.0135C187.348 57.2253 187.075 57.3525 186.785 57.3686C186.643 57.38 186.5 57.3632 186.365 57.3191C186.23 57.2749 186.105 57.2044 185.997 57.1116C185.889 57.0187 185.801 56.9054 185.737 56.7782C185.674 56.651 185.636 56.5124 185.626 56.3705C185.62 56.0808 185.728 55.8004 185.926 55.5891C186.125 55.3778 186.398 55.2524 186.687 55.2397C186.829 55.2263 186.972 55.2415 187.108 55.2844C187.244 55.3273 187.37 55.397 187.479 55.4894C187.588 55.5818 187.677 55.695 187.741 55.8223C187.805 55.9497 187.843 56.0886 187.853 56.2309Z" fill="#263238"/>
<path d="M186.575 38.6203C187.462 35.1792 184.621 33.6087 181.647 31.6403C180.14 30.6856 178.379 30.2099 176.596 30.2759C174.813 30.342 173.092 30.9466 171.659 32.0103C170.179 33.155 169.118 34.7325 167.834 36.0796C166.55 37.4268 164.847 38.5924 162.99 38.5087C163.976 39.4399 165.223 40.0478 166.564 40.2511C167.905 40.4544 169.276 40.2435 170.493 39.6464C168.414 42.1779 165.638 44.0441 162.508 45.014C163.726 45.7444 165.162 46.0242 166.565 45.8048C167.968 45.5854 169.249 44.8807 170.186 43.8135C169.458 46.4851 168.084 48.937 166.187 50.954C165.866 51.296 165.489 51.7288 165.649 52.1685C165.81 52.6083 166.347 52.7618 166.836 52.7828C168.229 52.8341 169.61 52.5108 170.835 51.8466C172.06 51.1824 173.085 50.2016 173.802 49.0066C175.296 46.424 176.273 43.6808 177.627 41.0284C178.276 39.7651 180.356 37.5384 182.038 37.4826C183.434 37.4268 186.108 37.8805 186.764 39.1159" fill="#263238"/>
<path d="M173.802 35.6887C173.657 35.5034 173.475 35.351 173.266 35.2415C173.058 35.132 172.829 35.0679 172.594 35.0536C169.481 34.551 166.361 36.4496 164.602 39.0671C162.843 41.6846 162.194 44.8744 161.81 48.0015C161.489 50.5352 161.315 53.1806 162.166 55.5887L163.102 57.236C163.657 57.9955 164.082 58.8424 164.358 59.7418C164.54 60.4398 165.112 61.2425 165.852 61.1378C166.117 61.0607 166.356 60.9127 166.543 60.7097C166.73 60.5067 166.858 60.2565 166.913 59.9861C167.387 58.3877 166.71 56.6078 167.241 55.0373C167.604 53.9763 168.448 53.1806 169.097 52.2453C170.148 50.5654 170.886 48.709 171.275 46.766L173.802 37.1545C173.899 36.9223 173.949 36.6732 173.949 36.4216C173.949 36.1701 173.899 35.921 173.802 35.6887Z" fill="#263238"/>
<path d="M186.575 38.6203C187.462 35.1792 184.621 33.6087 181.647 31.6403C180.14 30.6856 178.379 30.2099 176.596 30.2759C174.813 30.342 173.092 30.9466 171.659 32.0103C170.179 33.155 169.118 34.7325 167.834 36.0796C166.55 37.4268 164.847 38.5924 162.99 38.5087C163.976 39.4399 165.223 40.0478 166.564 40.2511C167.905 40.4544 169.276 40.2435 170.493 39.6464C168.414 42.1779 165.638 44.0441 162.508 45.014C163.726 45.7444 165.162 46.0242 166.565 45.8048C167.968 45.5854 169.249 44.8807 170.186 43.8135C169.458 46.4851 168.084 48.937 166.187 50.954C165.866 51.296 165.489 51.7288 165.649 52.1685C165.81 52.6083 166.347 52.7618 166.836 52.7828C168.229 52.8341 169.61 52.5108 170.835 51.8466C172.06 51.1824 173.085 50.2016 173.802 49.0066C175.296 46.424 176.273 43.6808 177.627 41.0284C178.276 39.7651 180.356 37.5384 182.038 37.4826C183.434 37.4268 186.108 37.8805 186.764 39.1159" fill="#263238"/>
<path d="M168.797 37.9572C168.797 37.9572 169.077 37.8665 169.544 37.6711C170.203 37.366 170.813 36.9636 171.352 36.4775C172.05 35.8842 172.748 35.0815 173.669 34.188C174.136 33.729 174.651 33.3218 175.205 32.9735C175.81 32.5933 176.488 32.3415 177.194 32.2336C178.558 32.0475 179.946 32.2736 181.18 32.8828C182.172 33.3723 183.077 34.0206 183.86 34.8023C184.388 35.3197 184.878 35.875 185.326 36.4635C185.508 36.6762 185.663 36.9106 185.787 37.1615C185.731 37.2034 185.04 36.2751 183.693 35.0117C182.908 34.278 182.016 33.6684 181.047 33.2039C179.865 32.645 178.547 32.439 177.25 32.6106C175.968 32.8639 174.795 33.5075 173.893 34.4533C173.006 35.2839 172.252 36.1145 171.513 36.7008C170.947 37.1714 170.305 37.5421 169.614 37.7967C169.356 37.9068 169.078 37.9615 168.797 37.9572Z" fill="#455A64"/>
<path d="M173.055 42.7595C173.02 42.7595 173.6 42.0615 174.34 40.7772C174.716 40.1559 175.149 39.3812 175.736 38.5994C176.323 37.706 177.091 36.9452 177.99 36.3658C178.921 35.8109 179.978 35.5033 181.061 35.4724C181.941 35.4513 182.815 35.6204 183.623 35.9679C184.163 36.1974 184.664 36.5081 185.11 36.8893C185.424 37.1615 185.563 37.343 185.549 37.3639C184.924 36.8952 184.244 36.5038 183.525 36.1983C182.656 35.8618 181.721 35.7296 180.793 35.8119C179.865 35.8942 178.968 36.1888 178.172 36.6729C177.308 37.2197 176.561 37.9312 175.973 38.7669C175.407 39.5417 174.961 40.2816 174.577 40.8609C174.262 41.3476 173.917 41.8139 173.544 42.2569C173.244 42.6269 173.104 42.7734 173.055 42.7595Z" fill="#455A64"/>
<path d="M192.229 41.9847C192.006 41.6035 191.81 41.2069 191.643 40.7981C191.188 39.8535 190.55 39.0089 189.765 38.3132C188.974 37.6376 188.005 37.206 186.973 37.0708C186.178 36.987 185.675 37.1196 185.668 37.0708C186.075 36.8579 186.538 36.7751 186.994 36.8335C188.104 36.893 189.162 37.3203 190.003 38.048C190.828 38.7721 191.472 39.6808 191.88 40.7004C192.08 41.1013 192.199 41.5378 192.229 41.9847Z" fill="#455A64"/>
<path d="M169.181 51.9382C169.181 51.9382 169.105 51.9382 168.944 52.001C168.714 52.0475 168.481 52.0778 168.246 52.0917C167.333 52.152 166.417 52.0286 165.552 51.7288C164.905 51.5533 164.32 51.2003 163.863 50.7097C163.732 50.5516 163.646 50.3609 163.616 50.158C163.585 49.9552 163.61 49.7477 163.688 49.558C163.898 49.1814 164.246 48.9011 164.658 48.7762C165.049 48.6157 165.475 48.5319 165.873 48.3923C166.291 48.2452 166.697 48.0655 167.087 47.8549C167.915 47.3953 168.653 46.7899 169.265 46.068L169.447 46.2914C168.602 46.7464 167.636 46.9238 166.685 46.7985C165.734 46.6732 164.847 46.2516 164.149 45.5934L163.988 45.4328L164.191 45.3351C165.677 44.5822 166.958 43.4805 167.925 42.1243L168.134 42.3826C167.102 42.7761 165.984 42.8904 164.893 42.714C163.803 42.5375 162.778 42.0765 161.922 41.3774L161.727 41.182L161.503 40.9935L161.783 40.8888C162.71 40.497 163.524 39.8777 164.149 39.088C164.763 38.3103 165.321 37.4892 165.817 36.631C166.309 35.7842 166.88 34.985 167.52 34.2439C168.145 33.5446 168.847 32.9193 169.614 32.3802C170.934 31.4377 172.43 30.7703 174.012 30.4178C175.595 30.0652 177.233 30.0347 178.828 30.3281C180.97 30.7293 182.967 31.6929 184.614 33.1201C185.224 33.6349 185.758 34.2342 186.199 34.9C185.672 34.3175 185.11 33.7674 184.516 33.2527C182.868 31.8781 180.891 30.9546 178.779 30.5724C177.327 30.3116 175.839 30.333 174.395 30.6352C172.738 30.981 171.17 31.6654 169.789 32.6455C168.269 33.7535 167.013 35.1836 166.11 36.8335C165.606 37.7065 165.039 38.5417 164.414 39.3323C163.76 40.1503 162.907 40.7871 161.936 41.182L161.992 40.8888L162.18 41.0424C162.986 41.7006 163.95 42.1354 164.977 42.3033C166.004 42.4711 167.056 42.366 168.03 41.9987L168.574 41.7823L168.239 42.2569C167.239 43.6593 165.908 44.7934 164.365 45.5585L164.407 45.3002C165.052 45.9153 165.873 46.3134 166.756 46.4385C167.638 46.5637 168.537 46.4097 169.328 45.9982L170.026 45.6003L169.502 46.2216C168.86 46.976 168.084 47.6054 167.213 48.0782C166.811 48.2959 166.39 48.4781 165.957 48.6227C165.531 48.7623 165.119 48.846 164.749 48.9926C164.391 49.0923 164.084 49.3243 163.891 49.6418C163.826 49.7954 163.804 49.964 163.829 50.129C163.854 50.2941 163.923 50.4491 164.03 50.5771C164.456 51.0443 165.002 51.3869 165.608 51.5682C166.453 51.873 167.348 52.0174 168.246 51.994C168.853 51.987 169.181 51.9172 169.181 51.9382Z" fill="#455A64"/>
<path d="M182.22 65.612L178.179 63.8181C177.832 64.3419 177.557 64.9101 177.362 65.5073C177.27 65.8067 177.241 66.122 177.277 66.4332C177.313 66.7444 177.413 67.0447 177.571 67.3151C177.942 67.7895 178.452 68.136 179.03 68.3063C179.506 68.5322 180.039 68.6076 180.559 68.5227C180.846 68.4349 181.109 68.2841 181.33 68.0812C181.551 67.8782 181.724 67.6284 181.836 67.35C182.053 66.7937 182.185 66.2077 182.227 65.612" fill="#EB996E"/>
<path d="M180.559 68.5157C180.559 68.5157 180.412 68.6134 180.112 68.6274C179.686 68.6247 179.264 68.5393 178.87 68.3761C178.244 68.1931 177.704 67.792 177.348 67.2453C177.174 66.8838 177.084 66.4878 177.084 66.0867C177.084 65.6855 177.174 65.2895 177.348 64.928C177.535 64.5092 177.755 64.1055 178.004 63.7204L178.088 63.5878L178.221 63.6506C179.379 64.1741 180.384 64.6488 181.089 64.9978C181.482 65.1518 181.852 65.3559 182.192 65.605C181.779 65.5181 181.378 65.3797 180.999 65.1932C180.266 64.9001 179.247 64.4952 178.081 63.9647L178.297 63.8949C178.066 64.2698 177.858 64.6591 177.676 65.0606C177.518 65.3737 177.429 65.7177 177.417 66.0685C177.405 66.4193 177.47 66.7685 177.606 67.0918C177.916 67.5819 178.384 67.9513 178.933 68.1388C179.296 68.3149 179.684 68.4327 180.084 68.4878C180.391 68.5227 180.552 68.4878 180.559 68.5157Z" fill="#263238"/>
<path d="M164.226 81.1076C164.226 81.1076 170.068 87.4943 185.354 82.3989L195.014 96.5404L204.647 174.584L172.329 178.283L147.027 174.709L155.11 96.5334L164.226 81.1076Z" fill="#E0E0E0"/>
<path d="M203.02 87.5641C203.02 87.5641 208.604 88.5134 211.759 94.9699C214.914 101.426 217.078 127.608 217.078 127.608L233.223 115.624L241.508 118.772C241.508 118.772 228.071 147.732 219.172 149.847C211.808 151.592 207.676 152.401 203.69 146.14C199.705 139.879 196.815 94.9699 196.815 94.9699L203.02 87.5641Z" fill="#455A64"/>
<path d="M209.484 191.95C209.484 191.95 205.296 148.897 205.519 148.381C205.743 147.864 205.066 123.183 205.519 122.799C205.973 122.415 203.02 87.585 203.02 87.585L187.664 82.8456H187.867L184.377 79.1323C184.377 79.1323 180.091 93.3645 180.147 93.5948C181.389 98.4808 185.836 171.359 185.836 171.359C185.836 171.876 187.588 191.922 187.588 191.922L209.484 191.95Z" fill="#455A64"/>
<path d="M204.842 125.033C204.68 125.183 204.505 125.318 204.319 125.438L202.769 126.526H202.734H202.685L194.54 122.583L194.449 122.541V122.45C194.253 119.805 194.03 116.803 193.786 113.634C193.576 110.661 193.374 107.834 193.192 105.3V105.154H193.332C196.208 104.559 199.176 104.581 202.043 105.217C202.856 105.394 203.656 105.627 204.437 105.915C204.721 106.004 204.995 106.124 205.254 106.27C204.967 106.204 204.685 106.12 204.409 106.019C203.618 105.779 202.814 105.583 202.001 105.433C199.16 104.873 196.234 104.897 193.402 105.503L193.534 105.328C193.723 107.862 193.939 110.682 194.163 113.655C194.386 116.824 194.602 119.826 194.791 122.471L194.7 122.338L202.776 126.422H202.685L204.284 125.403C204.455 125.258 204.642 125.134 204.842 125.033Z" fill="#263238"/>
<path d="M205.086 99.9327C205.156 100.275 205.193 100.623 205.198 100.973C205.247 101.671 205.296 102.627 205.337 103.828C205.421 106.243 205.442 109.579 205.421 113.257C205.4 116.936 205.386 120.272 205.421 122.68C205.421 123.832 205.421 124.775 205.421 125.535C205.442 125.887 205.43 126.24 205.386 126.589C205.316 126.245 205.279 125.894 205.275 125.542C205.226 124.844 205.177 123.895 205.135 122.687C205.051 120.272 205.03 116.936 205.051 113.257C205.072 109.579 205.086 106.277 205.051 103.834C205.051 102.683 205.051 101.74 205.051 100.98C205.03 100.63 205.042 100.28 205.086 99.9327Z" fill="#263238"/>
<path d="M187.881 82.8526C187.899 83.1722 187.882 83.4928 187.832 83.8089C187.776 84.4231 187.685 85.3096 187.567 86.4054C187.316 88.5902 186.939 91.6055 186.415 94.921C186.234 96.1146 186.038 97.2663 185.843 98.3342L185.752 98.8438L185.515 98.3831C184.987 97.3546 184.404 96.3551 183.77 95.3887C183.484 94.9489 183.204 94.5441 182.939 94.1672C182.713 93.8218 182.443 93.5074 182.136 93.2319C181.899 93.0141 181.586 92.8965 181.264 92.9038C181.022 92.9278 180.795 93.0337 180.622 93.2039C180.478 93.3545 180.398 93.5544 180.398 93.7623C180.398 93.7623 180.238 93.4971 180.531 93.1202C180.712 92.9147 180.959 92.7789 181.229 92.7363C181.414 92.7184 181.6 92.7376 181.778 92.7927C181.955 92.8478 182.12 92.9378 182.262 93.0574C182.598 93.3336 182.894 93.6554 183.141 94.0136C183.421 94.3836 183.714 94.7814 184.007 95.2212C184.665 96.1859 185.266 97.1881 185.808 98.2226L185.48 98.2714L186.038 94.8652C186.562 91.5497 186.973 88.5413 187.295 86.3705C187.448 85.3375 187.574 84.472 187.678 83.7949C187.714 83.4747 187.781 83.159 187.881 82.8526Z" fill="#263238"/>
<g opacity="0.3">
<path d="M185.556 98.083C185.305 99.116 185.061 100.177 184.816 101.182C184.077 99.1207 183.339 97.0592 182.604 94.9978C182.479 94.5863 182.293 94.1958 182.052 93.8391C181.638 93.4417 181.102 93.1958 180.531 93.1411C180.82 92.9079 181.185 92.7895 181.556 92.8089C181.927 92.8282 182.278 92.9838 182.541 93.2458C183.434 94.1881 185.556 98.083 185.556 98.083Z" fill="black"/>
</g>
<g opacity="0.3">
<path d="M205.407 125.263C207.327 118.374 206.929 109.747 205.086 102.829L205.407 125.263Z" fill="black"/>
</g>
<path d="M205.121 109.321C204.556 109.308 203.993 109.243 203.439 109.125C202.413 108.979 200.989 108.811 199.405 108.72C197.82 108.63 196.389 108.644 195.349 108.672C194.788 108.726 194.222 108.726 193.66 108.672C194.206 108.515 194.768 108.425 195.335 108.406C198.058 108.18 200.8 108.333 203.481 108.86C204.045 108.944 204.596 109.098 205.121 109.321Z" fill="#263238"/>
<path d="M205.792 159.681C205.546 159.604 205.312 159.496 205.094 159.36C204.654 159.137 204.033 158.788 203.279 158.348C201.306 157.18 199.396 155.91 197.555 154.544C195.714 153.182 193.945 151.723 192.257 150.175C191.608 149.581 191.099 149.086 190.757 148.737C190.566 148.565 190.395 148.373 190.247 148.164C190.47 148.292 190.674 148.449 190.854 148.632L192.425 149.986C193.758 151.117 195.629 152.66 197.778 154.251C199.928 155.842 201.967 157.183 203.411 158.125L205.163 159.242C205.391 159.36 205.603 159.507 205.792 159.681Z" fill="#263238"/>
<path opacity="0.3" d="M145.184 146.796L144.27 153.707C144.27 153.707 176.824 160.805 180.154 160.596C183.483 160.386 185.605 157.106 185.605 157.106L186.136 153.392C186.136 153.392 205.68 154.495 206.524 152.192L175.854 147.704L166.822 149.372L145.184 146.796Z" fill="black"/>
<path d="M183.867 86.8801C185.917 81.1133 189.477 76.0022 194.176 72.0801C198.874 68.1579 204.539 65.5684 210.579 64.5816C216.62 63.5949 222.814 64.247 228.516 66.47C234.219 68.693 239.22 72.4054 242.999 77.22C246.777 82.0346 249.195 87.775 249.999 93.8422C250.803 99.9095 249.965 106.081 247.571 111.714C245.177 117.347 241.315 122.234 236.389 125.866C231.462 129.498 225.652 131.741 219.563 132.362L216.68 140.507L188.397 130.526C188.397 130.526 189.842 125.891 191.189 121.794C186.874 117.212 183.908 111.527 182.616 105.367C181.324 99.2071 181.757 92.8099 183.867 86.8801Z" fill="#CD2027"/>
<path d="M192.648 131.985C192.648 131.985 192.718 131.859 192.843 131.608L193.388 130.477C193.862 129.486 194.553 128.013 195.419 126.108C197.136 122.29 199.537 116.72 202.106 109.684C202.748 107.932 203.404 106.082 204.053 104.142C204.381 103.171 204.709 102.187 205.037 101.175C205.432 100.156 205.667 99.0827 205.735 97.9922C205.748 97.419 205.621 96.8513 205.366 96.338C205.243 96.0672 205.066 95.8242 204.847 95.6238C204.627 95.4234 204.369 95.2698 204.088 95.1723C203.795 95.098 203.489 95.0882 203.191 95.1437C202.893 95.1991 202.611 95.3184 202.364 95.4934C201.857 95.84 201.46 96.3244 201.219 96.8894C201.003 97.4567 200.919 98.0659 200.973 98.6707C201.028 99.2755 201.219 99.8598 201.533 100.379C202.159 101.465 203.109 102.329 204.249 102.85C205.415 103.388 206.713 103.573 207.983 103.381C209.283 103.164 210.494 102.58 211.473 101.699C212.471 100.814 213.24 99.7 213.714 98.4529C213.962 97.82 214.104 97.15 214.132 96.4706C214.186 95.7657 213.975 95.0661 213.539 94.5092C213.298 94.2358 212.979 94.0433 212.625 93.9578C212.276 93.8739 211.912 93.8739 211.564 93.9578C210.87 94.1225 210.25 94.5099 209.798 95.0606C209.349 95.6019 208.982 96.2064 208.709 96.8545C208.432 97.4931 208.187 98.1454 207.976 98.8089C207.519 100.16 207.27 101.572 207.236 102.997C207.182 104.446 207.533 105.882 208.248 107.143C208.614 107.771 209.087 108.331 209.644 108.797C210.208 109.259 210.869 109.586 211.578 109.754C212.288 109.897 213.023 109.869 213.721 109.67C214.408 109.47 215.052 109.143 215.619 108.707C216.71 107.838 217.653 106.799 218.411 105.628C218.802 105.063 219.165 104.484 219.514 103.897C219.879 103.318 220.194 102.708 220.456 102.076C220.725 101.431 220.788 100.719 220.638 100.037C220.558 99.6915 220.395 99.3703 220.163 99.1021C219.919 98.8314 219.583 98.66 219.221 98.6204C218.868 98.5867 218.513 98.6597 218.202 98.8298C217.902 98.9895 217.627 99.1917 217.385 99.4301C216.917 99.9004 216.519 100.436 216.205 101.022C214.865 103.231 214.307 105.827 214.621 108.392C214.825 109.623 215.339 110.781 216.115 111.757C216.86 112.727 217.91 113.42 219.095 113.725C220.262 113.984 221.484 113.792 222.515 113.188C223.526 112.643 224.336 111.79 224.826 110.752C225.068 110.246 225.21 109.699 225.245 109.139C225.295 108.578 225.152 108.017 224.84 107.548C224.669 107.316 224.425 107.15 224.147 107.075C223.87 107 223.575 107.022 223.311 107.136C222.829 107.368 222.417 107.725 222.118 108.169C221.565 109.015 221.118 109.924 220.784 110.877L219.695 113.537C216.848 120.461 214.649 126.101 213.204 130.03C212.506 131.992 211.941 133.52 211.585 134.574L211.187 135.761L211.061 136.173C211.061 136.173 211.117 136.033 211.215 135.768L211.634 134.588C212.003 133.555 212.555 132.02 213.295 130.065C214.768 126.15 216.987 120.517 219.856 113.6C220.212 112.734 220.554 111.855 220.959 110.947C221.285 110.01 221.726 109.117 222.271 108.288C222.549 107.87 222.935 107.535 223.388 107.318C223.611 107.22 223.86 107.201 224.095 107.265C224.33 107.328 224.536 107.47 224.679 107.667C224.966 108.099 225.094 108.616 225.042 109.132C225.007 109.663 224.87 110.182 224.637 110.661C224.165 111.661 223.385 112.483 222.411 113.006C221.424 113.58 220.258 113.761 219.144 113.516C218.007 113.219 217.003 112.551 216.289 111.617C215.538 110.672 215.043 109.549 214.851 108.358C214.528 105.839 215.067 103.286 216.38 101.112C216.684 100.549 217.067 100.032 217.518 99.5767C217.723 99.3415 217.976 99.153 218.26 99.0242C218.544 98.8953 218.853 98.829 219.165 98.8298C219.47 98.885 219.751 99.0334 219.969 99.2546C220.186 99.4759 220.33 99.7591 220.379 100.065C220.518 100.702 220.455 101.365 220.198 101.964C219.941 102.582 219.633 103.177 219.277 103.744C218.935 104.323 218.579 104.902 218.181 105.461C217.435 106.61 216.509 107.63 215.438 108.483C214.894 108.898 214.279 109.21 213.623 109.405C212.965 109.597 212.269 109.623 211.599 109.481C210.927 109.303 210.299 108.99 209.752 108.562C209.205 108.133 208.75 107.598 208.416 106.989C207.719 105.77 207.381 104.379 207.439 102.976C207.467 101.585 207.702 100.207 208.137 98.8857C208.497 97.5696 209.098 96.3318 209.909 95.2351C210.327 94.7221 210.9 94.3594 211.543 94.2021C211.849 94.1158 212.174 94.1144 212.481 94.198C212.788 94.2816 213.067 94.447 213.288 94.6767C213.683 95.1871 213.873 95.8273 213.818 96.4706C213.795 97.1215 213.661 97.7637 213.42 98.3691C212.961 99.5802 212.217 100.662 211.25 101.524C210.311 102.376 209.149 102.943 207.899 103.157C206.675 103.349 205.421 103.172 204.298 102.648C203.198 102.15 202.283 101.32 201.68 100.275C201.376 99.7809 201.19 99.2239 201.135 98.6466C201.081 98.0693 201.16 97.4872 201.366 96.9452C201.596 96.43 201.966 95.9898 202.434 95.6749C202.653 95.5142 202.905 95.404 203.172 95.3521C203.438 95.3002 203.713 95.308 203.976 95.3747C204.23 95.4646 204.463 95.6041 204.662 95.7851C204.861 95.9661 205.022 96.1849 205.135 96.4287C205.373 96.9148 205.491 97.4511 205.477 97.9922C205.411 99.0626 205.175 100.116 204.779 101.112C204.451 102.124 204.123 103.116 203.809 104.086C203.157 106.017 202.511 107.864 201.869 109.628C199.328 116.664 196.983 122.241 195.265 126.066C194.414 127.978 193.737 129.458 193.276 130.456C193.046 130.952 192.871 131.336 192.746 131.594L192.648 131.985Z" fill="white"/>
<path d="M200.626 162.634C199.683 162.868 198.779 163.235 197.939 163.723C197.65 163.903 197.324 164.015 196.985 164.05C196.646 164.085 196.304 164.042 195.984 163.925L189.702 161.685C189.354 161.562 189.041 161.356 188.791 161.085C188.54 160.813 188.359 160.485 188.265 160.128C188.054 159.152 187.502 158.283 186.708 157.678L200.626 162.634Z" fill="#263238"/>
<path d="M213.707 147.453C213.658 147.578 208.695 156.924 206.797 160.498C206.421 161.227 205.869 161.851 205.192 162.313C204.514 162.775 203.732 163.06 202.916 163.144C202.261 163.206 201.601 163.123 200.982 162.899L187.169 158.013C187.169 158.013 183.553 156.736 183.756 153.581C183.958 150.258 186.548 137.827 186.548 137.827L213.707 147.453Z" fill="#E0E0E0"/>
<path d="M182.923 150.914L182.894 150.993C182.759 151.37 182.955 151.786 183.333 151.921L207.373 160.543C207.751 160.678 208.166 160.482 208.302 160.105L208.33 160.026C208.465 159.649 208.269 159.233 207.892 159.098L183.851 150.476C183.474 150.34 183.058 150.536 182.923 150.914Z" fill="#E0E0E0"/>
<path d="M183.344 151.934C183.176 151.851 183.039 151.716 182.953 151.55C182.907 151.449 182.883 151.34 182.883 151.229C182.883 151.118 182.907 151.008 182.953 150.908C183.012 150.775 183.111 150.664 183.236 150.59C183.361 150.516 183.506 150.483 183.651 150.496C184.963 150.943 186.89 151.682 189.235 152.534L207.788 159.228C207.883 159.259 207.969 159.315 208.036 159.39C208.103 159.465 208.15 159.555 208.172 159.654C208.196 159.75 208.196 159.851 208.172 159.947C208.145 160.046 208.103 160.14 208.046 160.226C207.987 160.306 207.909 160.371 207.819 160.413C207.729 160.456 207.629 160.476 207.53 160.47C207.313 160.422 207.101 160.356 206.894 160.275L204.291 159.339L199.356 157.574L190.98 154.607L185.34 152.625L183.798 152.101L183.4 151.969L183.26 151.934L183.393 151.99L183.784 152.143L185.305 152.715L190.889 154.809L199.23 157.825L204.158 159.598L206.762 160.54L207.097 160.659C207.217 160.709 207.344 160.742 207.474 160.756C207.609 160.758 207.742 160.728 207.863 160.668C207.985 160.609 208.09 160.522 208.172 160.414C208.252 160.303 208.308 160.178 208.339 160.044C208.371 159.909 208.371 159.768 208.339 159.633C208.307 159.494 208.24 159.366 208.144 159.26C208.049 159.153 207.929 159.073 207.795 159.025L189.221 152.401C186.834 151.571 184.928 150.866 183.56 150.44C183.395 150.421 183.228 150.457 183.085 150.543C182.942 150.629 182.832 150.759 182.772 150.915C182.718 151.023 182.691 151.143 182.691 151.264C182.691 151.385 182.718 151.504 182.772 151.613C182.833 151.709 182.918 151.789 183.018 151.845C183.117 151.901 183.229 151.931 183.344 151.934Z" fill="#263238"/>
<path d="M183.517 147.617L183.488 147.696C183.353 148.074 183.549 148.489 183.926 148.625L208.985 157.612C209.363 157.747 209.778 157.551 209.914 157.173L209.942 157.095C210.077 156.717 209.881 156.302 209.504 156.166L184.445 147.179C184.067 147.044 183.652 147.24 183.517 147.617Z" fill="#E0E0E0"/>
<path d="M183.937 148.674C183.758 148.598 183.615 148.456 183.539 148.276C183.498 148.169 183.481 148.054 183.49 147.939C183.498 147.825 183.532 147.713 183.588 147.613C183.66 147.476 183.775 147.367 183.915 147.303C184.055 147.239 184.213 147.222 184.363 147.257L190.191 149.386L209.463 156.366C209.561 156.401 209.648 156.461 209.716 156.539C209.784 156.617 209.832 156.711 209.854 156.813C209.882 156.913 209.882 157.019 209.854 157.12C209.827 157.225 209.777 157.322 209.707 157.406C209.639 157.482 209.553 157.54 209.457 157.574C209.36 157.609 209.257 157.618 209.156 157.601C208.968 157.553 208.709 157.448 208.458 157.371L205.757 156.352L200.633 154.523L191.95 151.424L186.094 149.372L184.496 148.821L184.077 148.688L183.937 148.646C183.937 148.646 183.979 148.646 184.07 148.709L184.482 148.869L186.059 149.463L191.894 151.599L200.557 154.733L205.673 156.575L208.381 157.546C208.61 157.639 208.843 157.72 209.079 157.79C209.221 157.812 209.367 157.798 209.502 157.749C209.638 157.7 209.759 157.618 209.854 157.511C209.945 157.403 210.011 157.276 210.049 157.141C210.084 156.999 210.084 156.85 210.049 156.708C210.021 156.564 209.954 156.43 209.858 156.32C209.761 156.21 209.637 156.127 209.498 156.08L190.198 149.191C187.727 148.318 185.731 147.613 184.335 147.138C184.166 147.099 183.99 147.119 183.833 147.193C183.677 147.268 183.551 147.394 183.477 147.55C183.42 147.657 183.387 147.775 183.381 147.895C183.375 148.016 183.396 148.136 183.442 148.248C183.479 148.357 183.544 148.454 183.631 148.529C183.718 148.604 183.824 148.654 183.937 148.674Z" fill="#263238"/>
<path d="M184.294 144.394L184.266 144.473C184.131 144.85 184.327 145.266 184.704 145.401L210.407 154.619C210.784 154.754 211.2 154.558 211.335 154.181L211.364 154.102C211.499 153.725 211.303 153.309 210.925 153.174L185.223 143.956C184.845 143.82 184.43 144.016 184.294 144.394Z" fill="#E0E0E0"/>
<path d="M184.712 145.421C184.534 145.332 184.394 145.184 184.314 145.003C184.268 144.89 184.25 144.767 184.261 144.646C184.272 144.525 184.312 144.408 184.377 144.305C184.456 144.168 184.58 144.063 184.727 144.006C184.874 143.949 185.036 143.944 185.186 143.99L191.154 146.175L210.894 153.288C210.993 153.327 211.081 153.39 211.149 153.472C211.217 153.553 211.264 153.651 211.285 153.755C211.298 153.862 211.288 153.97 211.256 154.073C211.223 154.175 211.169 154.269 211.096 154.349C211.024 154.425 210.933 154.481 210.833 154.511C210.733 154.542 210.626 154.546 210.524 154.523C210.307 154.453 210.056 154.356 209.826 154.272L207.034 153.281L201.806 151.466L192.92 148.304L186.924 146.21L185.291 145.645L184.858 145.505H184.712L184.851 145.568L185.27 145.728L186.889 146.336L192.864 148.52L201.729 151.724L206.971 153.616L209.763 154.614C210.007 154.698 210.217 154.782 210.461 154.865C210.606 154.899 210.757 154.894 210.9 154.853C211.043 154.811 211.173 154.734 211.278 154.628C211.372 154.52 211.443 154.394 211.487 154.258C211.536 154.117 211.55 153.966 211.529 153.818C211.502 153.67 211.438 153.532 211.341 153.416C211.244 153.301 211.119 153.214 210.977 153.162L191.252 146.029L185.249 143.935C185.079 143.885 184.898 143.895 184.734 143.962C184.571 144.029 184.435 144.15 184.349 144.305C184.285 144.415 184.248 144.538 184.24 144.665C184.231 144.792 184.252 144.92 184.3 145.037C184.338 145.126 184.394 145.207 184.465 145.273C184.536 145.339 184.62 145.389 184.712 145.421Z" fill="#263238"/>
<path d="M184.874 141.102L184.846 141.181C184.71 141.558 184.907 141.974 185.284 142.109L212.031 151.702C212.409 151.837 212.824 151.641 212.96 151.264L212.988 151.185C213.123 150.807 212.927 150.392 212.55 150.256L185.802 140.664C185.425 140.528 185.009 140.724 184.874 141.102Z" fill="#E0E0E0"/>
<path d="M185.291 142.127C185.106 142.039 184.962 141.884 184.886 141.694C184.847 141.578 184.836 141.455 184.853 141.333C184.87 141.212 184.915 141.097 184.984 140.996C185.075 140.859 185.212 140.758 185.371 140.712C185.529 140.666 185.699 140.678 185.849 140.745L192.041 143.013L212.513 150.391C212.617 150.43 212.708 150.495 212.778 150.581C212.848 150.667 212.894 150.77 212.911 150.88C212.921 150.991 212.906 151.103 212.868 151.208C212.829 151.314 212.767 151.409 212.687 151.487C212.604 151.559 212.504 151.607 212.396 151.627C212.288 151.646 212.176 151.637 212.073 151.599L211.34 151.34L208.465 150.307L203.027 148.36L193.807 145.086L187.587 142.895L185.891 142.308L185.445 142.169C185.396 142.145 185.344 142.131 185.291 142.127L185.438 142.19L185.87 142.357L187.553 142.985L193.751 145.247L202.95 148.576L208.381 150.538L211.257 151.571L211.955 151.836C212.063 151.873 212.178 151.889 212.293 151.882C212.407 151.874 212.519 151.845 212.623 151.794C212.726 151.744 212.818 151.673 212.894 151.587C212.969 151.501 213.027 151.4 213.064 151.292C213.119 151.149 213.138 150.996 213.12 150.845C213.1 150.688 213.038 150.541 212.939 150.417C212.841 150.294 212.71 150.201 212.562 150.147L192.069 142.832L185.849 140.64C185.679 140.568 185.489 140.559 185.313 140.614C185.137 140.669 184.985 140.784 184.886 140.94C184.815 141.051 184.77 141.176 184.756 141.307C184.741 141.438 184.757 141.57 184.802 141.694C184.861 141.845 184.969 141.97 185.11 142.05C185.163 142.09 185.225 142.116 185.291 142.127Z" fill="#263238"/>
<path d="M221.769 137.017C221.678 137.269 218.977 143.111 217.581 146.091C217.326 146.633 216.953 147.111 216.489 147.489C216.025 147.867 215.482 148.136 214.9 148.276L213.169 148.688L186.457 139.209L185.389 137.813C185.019 137.333 184.763 136.775 184.642 136.181C184.521 135.586 184.538 134.973 184.691 134.386L187.218 124.733L221.769 137.017Z" fill="#CD2027"/>
<g opacity="0.3">
<path d="M206.503 160.177C203.701 159.755 200.957 159.015 198.323 157.971C196.047 157.148 193.793 156.422 191.343 155.486C189.542 154.788 187.901 154.125 186.122 153.392C185.394 153.14 184.732 152.73 184.181 152.192L206.503 160.177Z" fill="black"/>
</g>
<g opacity="0.3">
<path d="M208.563 157.392C205.55 156.896 202.6 156.079 199.761 154.956C197.311 154.07 194.875 153.281 192.222 152.283C190.282 151.55 188.516 150.817 186.596 150.049C185.821 149.776 185.109 149.348 184.502 148.793L208.563 157.392Z" fill="black"/>
</g>
<g opacity="0.3">
<path d="M209.658 154.307C206.647 153.815 203.696 153.003 200.857 151.885C198.4 150.998 195.971 150.21 193.318 149.211C191.378 148.479 189.612 147.753 187.685 146.978C186.91 146.704 186.198 146.276 185.591 145.721L209.658 154.307Z" fill="black"/>
</g>
<g opacity="0.3">
<path d="M210.754 151.222C207.742 150.731 204.791 149.919 201.952 148.8C199.495 147.913 197.066 147.124 194.414 146.126C192.473 145.428 190.707 144.667 188.781 143.893C188.004 143.621 187.292 143.194 186.687 142.636L210.754 151.222Z" fill="black"/>
</g>
<path d="M216.68 130.163C216.822 130.175 216.964 130.175 217.106 130.163C217.378 130.163 217.804 130.163 218.313 130.128C219.794 130.041 221.266 129.845 222.718 129.542C224.876 129.1 226.981 128.434 229 127.553C233.985 125.409 238.332 122.014 241.62 117.697C242.961 115.959 244.119 114.088 245.075 112.113C245.719 110.777 246.264 109.396 246.708 107.981C246.876 107.478 246.959 107.08 247.036 106.815C247.077 106.68 247.11 106.542 247.134 106.403C247.069 106.529 247.02 106.663 246.987 106.801C246.897 107.059 246.799 107.457 246.617 107.946C246.139 109.345 245.57 110.711 244.914 112.036C241.573 118.893 235.899 124.337 228.909 127.392C226.903 128.273 224.816 128.953 222.676 129.423C221.233 129.736 219.771 129.955 218.3 130.079C217.776 130.135 217.371 130.142 217.092 130.163H216.68Z" fill="#263238"/>
<path d="M247.943 99.7372C247.77 100.306 247.672 100.895 247.65 101.489C247.55 102.075 247.533 102.672 247.601 103.262C247.775 102.693 247.873 102.104 247.895 101.51C247.995 100.925 248.012 100.327 247.943 99.7372Z" fill="#263238"/>
<path d="M184.789 95.626C184.819 95.5089 184.843 95.39 184.859 95.27C184.893 95.0117 184.942 94.6697 185.005 94.237L185.103 93.4901C185.152 93.2249 185.222 92.9317 185.284 92.6176C185.424 91.9894 185.536 91.2705 185.78 90.5236C185.892 90.1397 186.003 89.7279 186.129 89.3091C186.255 88.8903 186.429 88.4575 186.583 88.0108C186.876 87.1104 187.281 86.196 187.741 85.2188C188.744 83.1344 189.951 81.1541 191.343 79.3067C192.764 77.4821 194.358 75.7991 196.103 74.2811C196.934 73.5831 197.702 72.948 198.498 72.4314C198.888 72.1592 199.251 71.88 199.628 71.6497L200.71 71.0005C201.408 70.5608 202.057 70.2607 202.63 69.9605C202.916 69.8209 203.174 69.6743 203.425 69.5627L204.123 69.2695L205.08 68.8577C205.194 68.8142 205.303 68.7604 205.408 68.6971C205.29 68.7235 205.176 68.7609 205.066 68.8088L204.088 69.1788L203.39 69.451C203.139 69.5627 202.874 69.7023 202.581 69.8349C202.008 70.128 201.331 70.4142 200.64 70.847L199.538 71.4891C199.161 71.7195 198.791 71.9917 198.393 72.2569C197.59 72.7804 196.808 73.4366 195.971 74.1066C194.203 75.6236 192.592 77.3143 191.162 79.1532C189.763 81.0188 188.552 83.0177 187.546 85.1211C187.12 86.1053 186.687 87.0336 186.401 87.9131C186.248 88.3668 186.08 88.7995 185.954 89.2253C185.829 89.6511 185.731 90.0629 185.626 90.4538C185.433 91.1569 185.276 91.8699 185.159 92.5897C185.103 92.9108 185.04 93.2039 184.998 93.4761C184.956 93.7484 184.949 93.9996 184.921 94.223C184.88 94.6558 184.845 95.0048 184.817 95.263C184.79 95.3821 184.781 95.5043 184.789 95.626Z" fill="white"/>
<g opacity="0.2">
<path d="M225.601 75.5655C226.641 74.3998 228.491 73.9461 230.487 74.0439C233.304 74.2253 235.937 75.5033 237.823 77.6037C243.442 83.7042 245.808 89.4696 245.459 98.1737C245.34 101.112 244.196 105.628 241.969 107.764C241.427 108.307 240.779 108.731 240.066 109.012C239.353 109.293 238.589 109.425 237.823 109.398C233.809 109.167 232.169 104.602 232.239 100.819C232.302 97.2942 233.181 93.6018 231.813 90.3491C230.682 87.6758 228.232 85.8331 226.452 83.5297C224.673 81.2263 223.66 77.7223 225.601 75.5655Z" fill="white"/>
</g>
<g opacity="0.2">
<path d="M213.106 69.7232C215.026 68.0759 218.32 68.2784 219.779 69.6813C220.373 70.2817 220.822 71.0087 221.094 71.8079C221.366 72.607 221.454 73.4574 221.35 74.2951C221.194 75.3006 220.741 76.2365 220.05 76.9828C219.358 77.729 218.459 78.2515 217.469 78.4831C216.469 78.6756 215.433 78.547 214.511 78.1158C213.588 77.6846 212.825 76.9727 212.331 76.082C211.396 74.2951 211.571 71.0424 213.106 69.7232Z" fill="white"/>
</g>
<path opacity="0.3" d="M221.769 137.017C221.678 137.269 218.977 143.111 217.581 146.091C217.326 146.633 216.953 147.111 216.489 147.489C216.025 147.867 215.482 148.136 214.9 148.276L213.169 148.688L186.457 139.209L185.389 137.813C185.019 137.333 184.763 136.775 184.642 136.181C184.521 135.586 184.538 134.973 184.691 134.386L187.218 124.733L221.769 137.017Z" fill="black"/>
<path d="M187.008 124.684C187.008 124.754 194.686 127.553 204.27 130.966C213.853 134.379 221.587 137.052 221.608 136.989C221.629 136.927 213.93 134.121 204.347 130.707C194.763 127.294 187.064 124.621 187.008 124.684Z" fill="#263238"/>
<path d="M184.879 135.929C184.879 135.998 191.978 138.581 200.794 141.708C209.61 144.835 216.771 147.292 216.792 147.25C216.813 147.208 209.693 144.605 200.878 141.478C192.062 138.351 184.9 135.866 184.879 135.929Z" fill="#263238"/>
<path d="M208.702 57.934C208.604 57.934 207.529 52.35 206.301 45.4887C205.072 38.6273 204.151 33.0014 204.249 32.9805C204.347 32.9596 205.428 38.5645 206.657 45.4258C207.885 52.2872 208.835 57.934 208.702 57.934Z" fill="#263238"/>
<path d="M247.79 23.4877C247.888 23.5226 244.544 32.0522 240.329 42.5361C236.113 53.0201 232.651 61.4868 232.525 61.4519C232.399 61.417 235.771 52.8875 239.987 42.4035C244.202 31.9195 247.678 23.4528 247.79 23.4877Z" fill="#263238"/>
<path d="M271.334 55.5817C271.39 55.6655 266.148 59.0717 259.628 63.2039C253.109 67.3361 247.79 70.6097 247.72 70.498C247.651 70.3863 252.914 67.008 259.433 62.8689C265.952 58.7297 271.285 55.498 271.334 55.5817Z" fill="#263238"/>
<path d="M275.459 89.3789C275.459 89.4836 270.831 89.0857 265.156 88.4924C259.482 87.8991 254.882 87.3407 254.889 87.243C254.896 87.1453 259.509 87.5362 265.191 88.1295C270.873 88.7228 275.466 89.2812 275.459 89.3789Z" fill="#263238"/>
<path d="M223.283 55.3723C223.178 55.3723 223.541 51.0796 224.079 45.8097C224.616 40.5398 225.14 36.296 225.238 36.296C225.335 36.296 224.979 40.5887 224.442 45.8586C223.904 51.1285 223.36 55.3863 223.283 55.3723Z" fill="#263238"/>
<path d="M255.279 47.1639C255.185 47.4108 255.061 47.6453 254.91 47.8619C254.651 48.2946 254.267 48.8949 253.772 49.6348C252.781 51.1145 251.343 53.1248 249.633 55.2188C247.923 57.3128 246.268 59.1555 245.026 60.4328C244.412 61.068 243.902 61.5776 243.532 61.9196C243.353 62.1053 243.157 62.2736 242.946 62.4221C243.08 62.2003 243.244 61.9983 243.434 61.8219C243.818 61.3891 244.286 60.8726 244.83 60.2583C246.017 58.9391 247.622 57.0964 249.332 54.9954C251.043 52.8944 252.501 50.9261 253.52 49.4882L254.77 47.7641C254.914 47.5437 255.085 47.342 255.279 47.1639Z" fill="#263238"/>
<path d="M264.898 74.2951C263.1 74.9837 261.261 75.5572 259.391 76.0122C257.561 76.5949 255.696 77.0612 253.807 77.4082C255.607 76.7184 257.448 76.1426 259.321 75.6841C261.149 75.1059 263.012 74.642 264.898 74.2951Z" fill="#263238"/>
<path d="M188.418 140.849C189.238 139.726 190.293 138.794 191.51 138.12C193.604 136.941 197.743 136.536 198.546 135.161C199.349 133.786 200.591 135.231 199.872 137.003C199.419 138.134 196.382 140.717 196.382 140.717C196.382 140.717 199.07 142.001 201.178 141.296C203.286 140.591 210.252 139.977 210.803 141.045C211.389 142.245 209.588 142.245 208.765 142.518C208.13 142.72 203.3 144.011 203.3 144.011C203.3 144.011 212.094 145.484 213.113 146.105C214.132 146.727 212.778 147.606 212.227 147.501C211.871 147.446 212.827 148.604 211.564 149.379C210.712 149.902 206.971 149.958 205.98 149.777L203.942 149.393L209.979 151.292C209.979 151.292 210.845 152.478 209.281 152.688C208.583 152.778 189.333 151.682 187.867 151.473C185.333 151.11 181.738 150.468 181.738 150.468L183.797 140.054L188.418 140.849Z" fill="#FFBE9D"/>
<path d="M203.3 144.011C203.613 143.995 203.927 144.016 204.235 144.074C204.835 144.144 205.701 144.256 206.762 144.423C207.823 144.591 209.093 144.8 210.489 145.121C211.225 145.273 211.948 145.481 212.653 145.742C212.856 145.817 213.047 145.923 213.218 146.057C213.269 146.104 213.314 146.158 213.351 146.217L213.421 146.364C213.47 146.463 213.508 146.569 213.532 146.678C213.558 146.799 213.557 146.924 213.53 147.045C213.502 147.165 213.448 147.278 213.372 147.376C213.205 147.549 212.992 147.67 212.758 147.725C212.345 147.798 211.927 147.835 211.508 147.836H210.322C209.547 147.836 208.8 147.836 208.088 147.836C206.657 147.788 205.38 147.683 204.305 147.557C203.23 147.432 202.371 147.299 201.785 147.18C201.473 147.144 201.166 147.072 200.871 146.964C201.184 146.958 201.498 146.984 201.806 147.041C202.399 147.11 203.265 147.208 204.333 147.306C205.401 147.404 206.678 147.473 208.095 147.501C208.793 147.501 209.547 147.501 210.315 147.501L211.494 147.459C211.885 147.457 212.274 147.424 212.66 147.362C212.825 147.325 212.978 147.243 213.1 147.124C213.143 147.066 213.173 146.999 213.187 146.928C213.2 146.856 213.196 146.783 213.176 146.713C213.156 146.629 213.128 146.547 213.093 146.468L213.037 146.343C213.037 146.343 213.037 146.308 212.981 146.28C212.838 146.178 212.683 146.094 212.52 146.029C211.837 145.774 211.137 145.564 210.426 145.4C209.03 145.079 207.788 144.842 206.734 144.64L204.228 144.179C203.915 144.148 203.604 144.092 203.3 144.011Z" fill="#EB996E"/>
<path d="M243.602 118.569L245.529 114.179C245.529 114.179 241.564 109.153 241.557 107.199L241.48 106.061C241.48 106.061 239.135 103.758 240.126 102.152C239.826 100.868 240.056 100.1 241.152 100.156C241.152 100.156 239.358 98.4529 241.02 96.8824C242.681 95.3119 249.186 103.304 249.186 103.304C249.186 103.304 252.153 106.913 250.652 107.918C250.652 107.918 251.622 110.354 249.158 111.143C249.158 111.143 250.08 112.867 248.404 114.849L247.706 115.721C246.898 116.708 245.88 117.502 244.726 118.046L243.602 118.569Z" fill="#FFBE9D"/>
<path d="M248.153 110.382C248.153 110.382 248.314 110.382 248.544 110.479C248.857 110.665 249.101 110.947 249.242 111.282C249.466 111.796 249.5 112.372 249.34 112.908C249.14 113.566 248.818 114.179 248.39 114.716C247.653 115.706 246.787 116.594 245.815 117.355C245.43 117.697 244.991 117.973 244.517 118.171C245.834 117.08 247.036 115.857 248.104 114.521C248.509 114.019 248.821 113.45 249.026 112.839C249.188 112.368 249.188 111.857 249.026 111.387C248.859 110.961 248.551 110.606 248.153 110.382Z" fill="#EB996E"/>
<path d="M247.699 106.229C247.609 106.291 246.415 104.609 244.579 102.864C242.744 101.119 241.013 99.9955 241.089 99.9047C241.52 100.056 241.923 100.275 242.283 100.554C244.11 101.772 245.709 103.3 247.008 105.07C247.296 105.419 247.529 105.809 247.699 106.229Z" fill="#EB996E"/>
<path d="M246.75 108.281C246.666 108.351 245.354 106.808 243.518 105.119C241.683 103.43 240.07 102.208 240.133 102.124C242.745 103.691 244.999 105.788 246.75 108.281Z" fill="#EB996E"/>
<path d="M249.032 106.55C249.032 106.452 249.73 106.501 250.31 107.122C250.889 107.743 250.868 108.448 250.77 108.441C250.673 108.434 250.533 107.876 250.072 107.366C249.612 106.857 249.011 106.647 249.032 106.55Z" fill="#EB996E"/>
<path d="M244.754 110.151C244.152 109.557 243.608 108.907 243.127 108.211C242.554 107.593 242.04 106.922 241.592 106.208C242.95 107.246 244.036 108.599 244.754 110.151Z" fill="#EB996E"/>
<path d="M165.224 134.812C166.878 116.915 169.851 91.075 169.851 91.075C169.851 91.075 167.548 84.8838 166.306 82.1616L164.644 78.183L161.001 82.8247L147.355 87.5641C145.356 88.6543 143.606 90.1496 142.218 91.9545C139.761 95.284 138.351 98.2365 137.611 103.723C135.573 118.835 132.39 139.809 135.3 144.667C136.075 145.966 139.656 147.997 144.793 149.861L139.509 187.064C146.566 192.487 151.871 191.887 162.145 188.6C162.145 188.6 163.632 166.487 164.037 154.747C173.348 156.743 181.187 158.278 181.187 158.278L184.167 140.361L165.224 134.812Z" fill="#455A64"/>
<path d="M153.825 131.224C152.538 131.579 151.309 132.117 150.175 132.822C149.109 133.629 148.169 134.589 147.383 135.67C147.48 135.276 147.661 134.907 147.913 134.588C149.024 132.956 150.704 131.796 152.625 131.336C153.013 131.214 153.422 131.176 153.825 131.224Z" fill="#263238"/>
<path d="M150.608 105.628C150.459 105.003 150.368 104.365 150.335 103.723C150.21 102.543 150.035 100.931 149.805 99.116C149.456 96.324 149.107 93.9019 148.988 93.0225H149.107C149.107 93.2877 149.107 93.4273 149.107 93.4273C149.107 93.4273 149.051 93.3017 148.988 93.0364H149.114C149.584 95.041 149.938 97.0708 150.175 99.116C150.405 100.917 150.538 102.557 150.601 103.744C150.666 104.37 150.668 105.001 150.608 105.628Z" fill="#263238"/>
<path d="M153.888 113.257C153.899 113.362 153.899 113.467 153.888 113.572C153.888 113.802 153.888 114.109 153.888 114.5C153.888 115.331 153.888 116.531 153.825 118.067C153.756 121.18 153.651 125.661 153.525 131.203L153.435 131.077L184.147 140.019L184.3 140.061V140.221L183.162 147.097L181.327 158.132V158.306H181.152C168.274 156.212 157.064 153.825 149.233 151.438C146.137 150.533 143.121 149.375 140.214 147.976L138.881 147.278L137.967 146.685L137.409 146.308C137.345 146.268 137.284 146.223 137.227 146.175C137.298 146.205 137.366 146.242 137.429 146.287L138.002 146.629L138.93 147.194L140.263 147.85C143.176 149.178 146.186 150.279 149.268 151.145C157.092 153.469 168.302 155.808 181.173 157.888L180.964 158.034L182.799 146.992C183.19 144.64 183.574 142.315 183.944 140.117L184.07 140.319L153.358 131.287H153.26V131.224C153.435 125.682 153.574 121.201 153.672 118.088C153.728 116.552 153.777 115.358 153.805 114.528C153.805 114.13 153.805 113.83 153.846 113.6C153.851 113.485 153.865 113.37 153.888 113.257Z" fill="#263238"/>
<path opacity="0.3" d="M161.189 83.3272C161.301 83.8856 165.81 98.8438 165.81 98.8438C166.13 96.7998 166.632 94.7885 167.31 92.834C168.281 90.5027 167.841 90.398 167.841 90.398C167.841 90.398 166.277 90.9564 165.705 93.3296C165.6 93.7554 165.384 95.1514 165.384 95.1514L161.189 83.3272Z" fill="black"/>
<path d="M169.488 92.9457C169.446 92.7154 169.425 92.4818 169.426 92.2477C169.433 91.9403 169.374 91.6349 169.254 91.352C169.134 91.0691 168.954 90.8152 168.728 90.6074C168.574 90.4772 168.384 90.3963 168.184 90.3752C167.984 90.354 167.781 90.3936 167.604 90.4887C167.193 90.7689 166.852 91.1389 166.606 91.5706C165.96 92.5665 165.587 93.7147 165.524 94.9001L165.475 95.8842L165.175 94.9489C164.986 94.3696 164.791 93.7693 164.575 93.1621C163.562 90.2863 162.481 87.7316 161.845 85.8331C161.517 84.8838 161.273 84.109 161.112 83.5715C161.019 83.295 160.953 83.0097 160.917 82.72C161.053 82.979 161.165 83.25 161.252 83.5296L162.09 85.7423C162.788 87.6129 163.904 90.1537 164.924 93.0434C165.133 93.6576 165.335 94.2579 165.517 94.8372L165.161 94.8861C165.236 93.6375 165.646 92.4321 166.347 91.3961C166.626 90.9263 167.014 90.5311 167.478 90.2444C167.702 90.1309 167.955 90.0875 168.204 90.1198C168.453 90.1522 168.687 90.2589 168.874 90.4259C169.177 90.6775 169.39 91.0203 169.481 91.4031C169.55 91.6793 169.583 91.9631 169.579 92.2477C169.583 92.4835 169.552 92.7186 169.488 92.9457Z" fill="#263238"/>
<path d="M113.181 48.3365L123.637 37.5105L126.234 54.6325L140.242 54.1578L131.476 65.6748L140.298 77.2477L125.689 74.3719L123.581 89.0718L111.771 80.1234L96.8757 87.9201L100.135 72.8712L83.2368 70.2118L96.3802 62.4571L88.7231 49.2439L101.852 54.3812L103.451 38.0829L113.181 48.3365Z" fill="white"/>
<path d="M113.181 48.3365L112.539 47.6804L110.654 45.726L103.388 38.1387L103.535 38.0899C103.109 42.5152 102.585 48.0224 101.971 54.3882V54.5487L101.824 54.4929L88.6462 49.3765L88.8207 49.1741C91.1939 53.2574 93.7765 57.6967 96.4987 62.3803L96.5825 62.5129L96.4429 62.5897L83.3274 70.3584L83.2646 70.0513L100.163 72.6967H100.345V72.8782C99.3047 77.6735 98.2088 82.7479 97.085 87.9201L96.8268 87.7246L109.726 80.968L111.722 79.928L111.82 79.8721L111.911 79.9419C115.917 82.9713 119.854 85.9541 123.721 88.8903L123.435 89.009C124.16 83.9973 124.858 79.0974 125.529 74.3091V74.1276H125.71L140.319 77.0173L140.152 77.2826L131.336 65.6958L131.266 65.605L131.336 65.5073L140.117 54.0043L140.235 54.2346L126.227 54.6883H126.115V54.5836C125.103 47.9107 124.244 42.1732 123.546 37.5175L123.693 37.5664L115.868 45.6003L113.858 47.6525L113.16 48.3505C113.16 48.3505 113.383 48.0992 113.858 47.6525C114.333 47.2057 114.975 46.4728 115.854 45.5585L123.546 37.4477L123.665 37.3221V37.4966C124.363 42.1383 125.263 47.8758 126.303 54.6185L126.178 54.5138L140.187 54.0182H140.487L140.305 54.2555C137.555 57.8619 134.635 61.7009 131.545 65.7725V65.612L140.375 77.1848L140.647 77.5338L140.214 77.4501L125.64 74.5394L125.85 74.3928C125.166 79.1765 124.468 84.0764 123.756 89.0927L123.714 89.3929L123.469 89.2114L111.68 80.27H111.876L109.886 81.31L96.9803 88.0667L96.6383 88.2481L96.7221 87.8642C97.8458 82.6921 98.9417 77.6176 99.9817 72.8223L100.128 73.0317L83.2367 70.3654L82.769 70.2956L83.1739 70.0583L96.3242 62.3244L96.2684 62.5338L88.5904 49.3137L88.3879 48.9647L88.7649 49.1113L101.908 54.2695L101.748 54.3672C102.383 48.0015 102.934 42.5012 103.381 38.0759V37.8874L103.507 38.0201C106.606 41.3216 109.014 43.8902 110.661 45.6352L112.532 47.6385C112.965 48.0922 113.181 48.3365 113.181 48.3365Z" fill="#263238"/>
<path d="M141.227 66.4077C141.227 67.0248 141.41 67.628 141.752 68.1411C142.095 68.6542 142.583 69.0541 143.153 69.2903C143.723 69.5264 144.35 69.5882 144.955 69.4678C145.561 69.3474 146.116 69.0503 146.553 68.6139C146.989 68.1776 147.286 67.6216 147.407 67.0164C147.527 66.4112 147.465 65.7838 147.229 65.2137C146.993 64.6436 146.593 64.1563 146.08 63.8135C145.567 63.4706 144.964 63.2877 144.347 63.2877C143.52 63.2895 142.727 63.6188 142.142 64.2035C141.558 64.7883 141.228 65.5808 141.227 66.4077Z" fill="white"/>
<path d="M141.226 66.4077C141.226 66.4077 141.226 66.1285 141.366 65.6609C141.549 64.9936 141.949 64.4065 142.504 63.9926C142.882 63.7076 143.322 63.5162 143.788 63.4342C144.319 63.3395 144.866 63.3877 145.373 63.5739C145.954 63.7849 146.457 64.1703 146.812 64.6775C147.166 65.1846 147.356 65.7888 147.355 66.4077C147.354 67.0271 147.164 67.6315 146.81 68.1395C146.455 68.6474 145.954 69.0345 145.373 69.2486C144.865 69.4315 144.319 69.4796 143.788 69.3882C143.324 69.3002 142.885 69.1094 142.504 68.8298C141.949 68.4159 141.549 67.8288 141.366 67.1616C141.24 66.6869 141.247 66.4077 141.226 66.4077C141.216 66.4748 141.216 66.5431 141.226 66.6101C141.225 66.8032 141.248 66.9956 141.296 67.1825C141.445 67.8825 141.833 68.5091 142.392 68.9554C142.786 69.2641 143.248 69.4747 143.739 69.5697C144.304 69.6775 144.887 69.6317 145.428 69.4371C146.033 69.2275 146.559 68.8377 146.936 68.3202C147.344 67.7672 147.564 67.0982 147.564 66.4112C147.564 65.7242 147.344 65.0552 146.936 64.5022C146.581 64.02 146.098 63.6472 145.541 63.4263C144.985 63.2054 144.377 63.1453 143.788 63.2528C143.298 63.3462 142.838 63.557 142.448 63.867C141.865 64.2925 141.452 64.9108 141.282 65.612C141.234 65.799 141.211 65.9914 141.212 66.1844C141.203 66.259 141.207 66.3349 141.226 66.4077Z" fill="#263238"/>
<path d="M111.631 55.0582L112.266 65.0396C112.291 65.4329 112.457 65.8039 112.734 66.0837C113.012 66.3636 113.381 66.5333 113.774 66.5613C114.189 66.5851 114.598 66.4484 114.915 66.1794C115.232 65.9105 115.433 65.5298 115.477 65.1164L116.587 55.0792C116.604 54.9011 116.583 54.7216 116.526 54.5522C116.468 54.3828 116.376 54.2272 116.255 54.0956C116.134 53.964 115.987 53.8593 115.823 53.7883C115.659 53.7172 115.482 53.6814 115.303 53.6832H112.867C112.694 53.6883 112.524 53.7285 112.367 53.8012C112.211 53.8739 112.07 53.9777 111.955 54.1063C111.839 54.2348 111.751 54.3855 111.695 54.5491C111.64 54.7127 111.618 54.8859 111.631 55.0582Z" fill="#CD2027"/>
<path d="M116.434 72.1732C116.283 72.6313 116.001 73.0346 115.621 73.332C115.242 73.6294 114.783 73.8075 114.302 73.8438C113.821 73.88 113.34 73.7729 112.921 73.5358C112.501 73.2987 112.161 72.9424 111.944 72.512C111.727 72.0816 111.642 71.5964 111.701 71.1179C111.76 70.6393 111.959 70.189 112.274 69.8239C112.589 69.4588 113.005 69.1953 113.469 69.0668C113.934 68.9383 114.426 68.9505 114.884 69.102C115.494 69.3077 115.998 69.7452 116.288 70.3199C116.578 70.8946 116.631 71.5604 116.434 72.1732Z" fill="#CD2027"/>
</svg>
