<svg width="64" height="64" viewBox="0 0 64 64" fill="none" xmlns="http://www.w3.org/2000/svg">
<path d="M21.3333 42.6666H40.7019C52.6688 42.6666 54.4888 35.1488 56.696 24.1842C57.3328 21.0216 57.6512 19.4403 56.8856 18.3868C56.12 17.3333 54.6525 17.3333 51.7176 17.3333H16" stroke="black" stroke-width="2" stroke-linecap="round"/>
<path d="M21.3332 42.6666L14.3431 9.37313C13.7496 6.99889 11.6163 5.33331 9.16904 5.33331H6.6665" stroke="black" stroke-width="2" stroke-linecap="round"/>
<path d="M23.68 42.6667H22.5829C18.9473 42.6667 16 45.7368 16 49.5238C16 50.155 16.4912 50.6667 17.0971 50.6667H46.6667" stroke="black" stroke-width="2" stroke-linecap="round" stroke-linejoin="round"/>
<path d="M28 58.6667C30.2091 58.6667 32 56.8758 32 54.6667C32 52.4575 30.2091 50.6667 28 50.6667C25.7909 50.6667 24 52.4575 24 54.6667C24 56.8758 25.7909 58.6667 28 58.6667Z" stroke="black" stroke-width="2"/>
<path d="M46.6665 58.6667C48.8756 58.6667 50.6665 56.8758 50.6665 54.6667C50.6665 52.4575 48.8756 50.6667 46.6665 50.6667C44.4574 50.6667 42.6665 52.4575 42.6665 54.6667C42.6665 56.8758 44.4574 58.6667 46.6665 58.6667Z" stroke="black" stroke-width="2"/>
</svg>
