<svg width="1201" height="179" viewBox="0 0 1201 179" fill="none" xmlns="http://www.w3.org/2000/svg">
<path d="M1201 0H0V177.431C0 178.163 0.759136 178.647 1.42204 178.338L41.5011 159.68C42.2785 159.318 43.1735 159.306 43.9603 159.647L87.5359 178.534C88.2274 178.834 89.0064 178.862 89.7179 178.614L144.508 159.484C145.196 159.244 145.948 159.262 146.624 159.536L193.551 178.563C194.244 178.844 195.017 178.856 195.719 178.597L247.467 159.467C248.09 159.236 248.772 159.219 249.406 159.418L310.744 178.693C311.378 178.892 312.06 178.875 312.684 178.645L364.601 159.451C365.199 159.23 365.852 159.206 366.465 159.381L434.133 178.711C434.788 178.898 435.487 178.857 436.116 178.593L481.492 159.582C482.212 159.28 483.022 159.271 483.748 159.556L532.186 178.582C532.871 178.851 533.632 178.859 534.323 178.603L586.089 159.467C586.712 159.236 587.394 159.219 588.028 159.418L649.381 178.697C650.006 178.894 650.678 178.88 651.294 178.659L704.807 159.441C705.404 159.227 706.054 159.207 706.663 159.385L772.799 178.717C773.427 178.901 774.098 178.874 774.709 178.641L825.022 159.478C825.646 159.24 826.331 159.217 826.969 159.413L889.823 178.682C890.493 178.887 891.215 178.852 891.861 178.581L937.33 159.53C937.977 159.259 938.698 159.224 939.368 159.429L1002.15 178.676C1002.83 178.885 1003.57 178.844 1004.22 178.56L1048.06 159.561C1048.73 159.271 1049.48 159.234 1050.17 159.458L1109.66 178.631C1110.4 178.868 1111.19 178.813 1111.89 178.477L1150.75 159.691C1151.51 159.322 1152.4 159.293 1153.18 159.611L1199.62 178.442C1200.28 178.709 1201 178.225 1201 177.515V0Z" fill="#F2EFEF"/>
</svg>
