<svg width="324" height="328" viewBox="0 0 324 328" fill="none" xmlns="http://www.w3.org/2000/svg">
<path d="M211.321 220.371L210.567 210.169L146.781 213.301V223.186C146.781 223.186 132.433 236.837 126.773 327.676H241.588C241.588 327.676 254.181 247.253 211.321 220.371Z" fill="#06B0BA"/>
<path d="M146.791 223.156L211.321 220.371" stroke="black" stroke-width="1.55" stroke-miterlimit="10"/>
<path d="M159.977 265.035L173.193 270.422L180.27 327.645" stroke="black" stroke-width="1.55" stroke-miterlimit="10"/>
<path d="M77.0505 200.609L94.6718 142.458L133.422 156.985L114.822 212.719C113.157 217.656 109.618 221.74 104.97 224.089C100.321 226.437 94.9352 226.863 89.9756 225.273C85.0161 223.682 80.8806 220.205 78.4623 215.59C76.044 210.976 75.5369 205.595 77.0505 200.609Z" fill="#F26E5A"/>
<path d="M104.237 111.311C105.029 108.624 106.35 106.122 108.121 103.953C109.893 101.784 112.08 99.9901 114.554 98.6777C117.028 97.3653 119.739 96.5604 122.528 96.3103C125.317 96.0602 128.127 96.3699 130.795 97.2213C133.463 98.0726 135.934 99.4485 138.063 101.268C140.192 103.088 141.936 105.314 143.193 107.818C144.451 110.321 145.196 113.05 145.384 115.845C145.573 118.64 145.202 121.444 144.293 124.094L133.432 156.904L94.6816 142.376L104.237 111.311Z" fill="#00676D"/>
<path d="M106.98 196.223L62.7125 112.25C62.7125 112.25 63.7322 97.0793 38.5341 96.1713C38.1976 96.1713 37.8509 96.1203 37.5144 96.1203H29.1014C28.3384 96.1047 27.5953 96.3641 27.0075 96.851C26.4197 97.3379 26.0264 98.02 25.8994 98.7728C25.8303 99.1844 25.8461 99.6058 25.9457 100.011C26.0454 100.416 26.2269 100.797 26.4791 101.13C26.7313 101.462 27.0487 101.74 27.412 101.945C27.7753 102.15 28.1767 102.279 28.5915 102.323L37.0861 103.527L25.5323 106.588L23.3704 107.383L7.63561 96.9875C7.09942 96.6026 6.43498 96.4408 5.78199 96.536C5.129 96.6312 4.53833 96.976 4.13421 97.4979C3.73008 98.0198 3.54398 98.6781 3.61503 99.3345C3.68607 99.9908 4.00873 100.594 4.51515 101.017C5.53491 101.833 7.05434 103.17 8.75733 104.649L5.27997 102.609C4.71336 102.239 4.02332 102.11 3.36163 102.25C2.69993 102.39 2.1208 102.787 1.75163 103.354C1.38246 103.92 1.25348 104.611 1.39309 105.273C1.5327 105.935 1.92944 106.514 2.49604 106.883L5.55531 109.067L4.352 108.597C3.71128 108.319 2.99465 108.269 2.32124 108.454C1.64783 108.64 1.05819 109.05 0.650293 109.618C0.395192 109.985 0.225419 110.405 0.153409 110.846C0.0813988 111.287 0.108967 111.739 0.234104 112.169C0.359242 112.598 0.578774 112.994 0.876632 113.328C1.17449 113.661 1.54314 113.924 1.95558 114.096L19.1486 121.299C22.1161 122.544 24.9612 123.339 28.4488 122.493L43.7451 118.871L78.1006 214.892L106.98 196.223Z" fill="#F26E5A"/>
<path d="M88.8184 161.76L97.007 177.298" stroke="#DB5749" stroke-width="1.5" stroke-miterlimit="10"/>
<path d="M138.695 96.6711L122.236 97.9056C122.236 97.9056 98.4145 130.215 146.781 213.27L210.567 210.138L215.37 120.666L207.498 95.2734H178.883L138.695 96.6711Z" fill="#00676D"/>
<path d="M120.023 151.895C120.023 151.895 115.271 141.907 118.32 119.789" stroke="#FCE7E4" stroke-width="1.55" stroke-miterlimit="10"/>
<path d="M268.07 188.897L241.557 134.174L205.539 154.578L232.634 206.731C235.023 211.388 239.155 214.913 244.13 216.537C249.104 218.16 254.519 217.751 259.194 215.399C263.868 213.046 267.424 208.941 269.087 203.977C270.75 199.013 270.384 193.593 268.07 188.897Z" fill="#F26E5A"/>
<path d="M227.291 104.975C226.068 102.478 224.363 100.247 222.273 98.4132C220.182 96.5793 217.75 95.1781 215.115 94.2909C212.48 93.4037 209.695 93.048 206.922 93.2444C204.149 93.4409 201.442 94.1855 198.959 95.4353C196.475 96.6851 194.264 98.4151 192.453 100.525C190.642 102.636 189.267 105.084 188.408 107.73C187.55 110.375 187.224 113.164 187.449 115.937C187.675 118.709 188.448 121.409 189.723 123.88L205.57 154.588L241.588 134.184L227.291 104.975Z" fill="#00676D"/>
<path d="M205.58 154.588L192.486 129.226" stroke="#FCE7E4" stroke-width="1.55" stroke-miterlimit="10"/>
<path d="M323.362 95.2734C322.948 94.7157 322.361 94.3123 321.692 94.1274C321.023 93.9426 320.311 93.9868 319.67 94.2532L311.971 97.2526L319.201 91.1314C319.795 90.6515 320.188 89.9667 320.303 89.2117C320.419 88.4566 320.247 87.6857 319.823 87.0506C319.583 86.7195 319.278 86.4401 318.928 86.2288C318.577 86.0176 318.188 85.8789 317.783 85.8208C317.378 85.7628 316.965 85.7867 316.569 85.891C316.174 85.9953 315.803 86.178 315.479 86.4282L308.759 91.8455L314.51 84.3062C314.977 83.713 315.208 82.9683 315.159 82.215C315.11 81.4618 314.785 80.7532 314.245 80.2254C313.944 79.9439 313.589 79.7277 313.2 79.5903C312.812 79.4529 312.4 79.3973 311.989 79.427C311.578 79.4567 311.178 79.571 310.813 79.7628C310.449 79.9547 310.128 80.2198 309.87 80.5417L298.551 92.2944L286.997 89.2338L295.492 88.0299C295.903 87.9786 296.3 87.8458 296.658 87.6391C297.017 87.4324 297.331 87.1561 297.582 86.8263C297.833 86.4966 298.015 86.12 298.119 85.7188C298.222 85.3176 298.244 84.8998 298.184 84.4898C298.055 83.7379 297.661 83.0571 297.074 82.5705C296.487 82.084 295.745 81.8239 294.982 81.8373H286.559C281.589 81.7971 276.778 83.5914 273.047 86.8771L272.864 87.0097C267.704 91.0905 269.58 99.4358 269.58 99.4358L237.855 189.295L269.294 203.252L287.405 106.751H298.98C299.695 106.812 300.415 106.812 301.131 106.751H301.254C302.506 106.638 303.733 106.335 304.894 105.853L322.087 99.7317C322.487 99.5471 322.841 99.2786 323.128 98.9443C323.414 98.61 323.625 98.218 323.746 97.7948C323.867 97.3716 323.895 96.9273 323.829 96.4922C323.763 96.057 323.603 95.6413 323.362 95.2734Z" fill="#F26E5A"/>
<path d="M250.163 151.895L243.311 175.829" stroke="#DB5749" stroke-width="1.5" stroke-miterlimit="10"/>
<path d="M137.419 22.5433C135.431 23.9103 122.123 27.3688 121.868 29.7765C121.868 29.7765 126.243 46.8853 121.766 50.0785C109.651 58.7094 105.776 75.6346 105.776 75.6346C105.776 75.6346 137.735 99.6094 222.732 74.441C222.732 74.441 223.752 64.2389 208.302 56.8629C203.809 54.8343 200.039 51.486 197.493 47.2628C196.021 44.9089 195.091 42.2569 194.77 39.499C193.302 31.1028 170.153 0.0784225 137.419 22.5433Z" fill="black"/>
<path d="M138.674 48.1912C138.817 50.2049 138.359 52.2156 137.359 53.9689C136.359 55.7221 134.861 57.1391 133.056 58.0405C131.25 58.9419 129.218 59.2872 127.216 59.0326C125.214 58.778 123.333 57.935 121.811 56.6104C120.288 55.2857 119.192 53.5389 118.663 51.591C118.133 49.6431 118.192 47.5818 118.834 45.6679C119.476 43.754 120.67 42.0735 122.267 40.8392C123.864 39.6049 125.791 38.8722 127.804 38.7339C130.498 38.5489 133.156 39.4407 135.194 41.2137C137.232 42.9867 138.483 45.496 138.674 48.1912Z" fill="#DB5749"/>
<path d="M143.273 73.1554L144.681 95.3142C145.16 103.098 148.342 108.403 156 107.873C162.537 107.414 170.277 102.18 170.664 95.6305L166.769 60.8416L143.273 73.1554Z" fill="#F26E5A"/>
<path d="M138.695 96.6711L178.883 95.2734C178.883 95.2734 177.914 115.055 154.001 113.198C137.42 111.913 138.695 96.6711 138.695 96.6711Z" fill="#F26E5A"/>
<path d="M144.436 91.417L170.144 66.269L143.09 70.8804L144.436 91.417Z" fill="#DB5749"/>
<path d="M150.013 76.7363C136.93 76.7363 126.12 66.4629 125.723 55.7712L124.958 30.5314C124.723 24.0841 127.002 17.7979 131.314 13.0006C135.625 8.20329 141.632 5.27068 148.066 4.82228C161.751 3.87349 176.017 14.0041 176.976 27.736L177.373 48.038C177.679 63.739 165.677 75.6447 150.013 76.7363Z" fill="#F26E5A"/>
<path d="M139.459 46.8853L138.704 53.1493L141.937 53.2717" stroke="black" stroke-width="1.24" stroke-linecap="round" stroke-linejoin="round"/>
<path d="M152.37 31.5925C152.37 31.5925 145.14 31.0008 145.068 33.9389C145.068 33.9389 145.068 35.9794 151.381 36.3262C157.693 36.6731 159.335 36.265 159.916 34.3878C160.497 32.5107 155.776 31.6129 152.37 31.5925Z" fill="black"/>
<path d="M131.423 35.8875C131.423 35.8875 136.899 35.4488 137.409 38.1013C137.409 38.1013 137.715 39.8866 132.922 40.1417C128.129 40.3967 126.641 39.8254 126.549 38.3053C126.437 36.52 128.813 35.867 131.423 35.8875Z" fill="black"/>
<path d="M134.594 44.5183C134.608 44.976 134.486 45.4276 134.244 45.8159C134.001 46.2043 133.649 46.5119 133.232 46.7C132.814 46.8881 132.35 46.9482 131.899 46.8727C131.448 46.7972 131.029 46.5895 130.695 46.2758C130.362 45.9621 130.129 45.5566 130.025 45.1104C129.922 44.6643 129.954 44.1975 130.116 43.7692C130.277 43.3409 130.563 42.9702 130.935 42.7041C131.308 42.4379 131.751 42.2882 132.208 42.2738C132.512 42.2643 132.815 42.3148 133.1 42.4225C133.384 42.5302 133.645 42.6929 133.866 42.9013C134.088 43.1097 134.266 43.3598 134.391 43.6373C134.516 43.9147 134.585 44.2141 134.594 44.5183Z" fill="black"/>
<path d="M154.032 43.8553C154.048 44.3133 153.927 44.7659 153.686 45.1555C153.445 45.5451 153.093 45.8543 152.676 46.044C152.259 46.2337 151.795 46.2953 151.343 46.221C150.891 46.1467 150.471 45.9398 150.136 45.6266C149.802 45.3134 149.568 44.9079 149.464 44.4615C149.36 44.0151 149.39 43.5479 149.552 43.119C149.714 42.6901 149.999 42.3188 150.371 42.0521C150.744 41.7855 151.187 41.6354 151.645 41.621C152.258 41.6017 152.853 41.8261 153.3 42.2449C153.747 42.6637 154.01 43.2428 154.032 43.8553Z" fill="black"/>
<path d="M147.271 57.6281C147.271 57.6281 143.855 56.0671 139.725 59.6685" stroke="black" stroke-width="1.24" stroke-linecap="round" stroke-linejoin="round"/>
<path d="M156.163 0.486489C152.893 0.314261 149.617 0.658552 146.455 1.50669C138.613 3.5471 124.53 9.40306 122.123 24.4612C121.318 28.44 121.868 29.7663 121.868 29.7663C121.868 29.7663 148.168 30.7865 163.678 23.4615C165.922 32.9289 167.982 38.7645 177.343 48.0279L185.654 35.5304L195.005 43.9267C195.097 44.2532 195.076 2.5575 156.163 0.486489Z" fill="black"/>
<path d="M191.018 48.293C191.161 50.3067 190.703 52.3174 189.703 54.0707C188.702 55.8239 187.205 57.2409 185.399 58.1423C183.594 59.0437 181.562 59.389 179.56 59.1344C177.558 58.8798 175.677 58.0368 174.154 56.7122C172.632 55.3875 171.536 53.6407 171.006 51.6928C170.476 49.745 170.536 47.6836 171.178 45.7697C171.819 43.8558 173.014 42.1753 174.611 40.941C176.208 39.7067 178.134 38.974 180.147 38.8357C182.842 38.6507 185.5 39.5425 187.538 41.3155C189.576 43.0885 190.827 45.5978 191.018 48.293Z" fill="#F26E5A"/>
<path d="M176.966 51.9149C176.966 51.9149 176.456 44.5388 183.574 45.2121" stroke="black" stroke-width="1.24" stroke-linecap="round" stroke-linejoin="round"/>
</svg>
